<svg xmlns="http://www.w3.org/2000/svg" viewBox="0 0 617.52 617.52"><defs><style>.cls-1{fill:#e84142;}.cls-2{fill:#fff;}</style></defs><g id="Capa_2" data-name="Capa 2"><g id="Capa_1-2" data-name="Capa 1"><g id="Capa_2-2" data-name="Capa 2"><g id="Capa_1-2-2" data-name="Capa 1-2"><circle class="cls-1" cx="308.76" cy="308.76" r="308.76"/><path class="cls-2" d="M468.82,306a159.6,159.6,0,0,0-24.39-85l56.76-56.76L452.44,115.5l-56.29,56.3a160.42,160.42,0,0,0-175.84.38L163.63,115.5l-48.74,48.7,57.36,57.36a160.4,160.4,0,0,0,2,172.07L114.89,453l48.74,48.74,59.85-59.85a160.43,160.43,0,0,0,169.48.37l59.48,59.48L501.19,453l-58.8-58.8A159.68,159.68,0,0,0,468.82,306Zm-122.4,89.73a97.3,97.3,0,1,1,49.91-47.57A97.3,97.3,0,0,1,346.42,395.73Z"/></g></g><path class="cls-2" d="M273.2,351.89h-24c-5,0-7.54,0-9.06-1a6.11,6.11,0,0,1-2.76-4.77c-.1-1.8,1.15-4,3.64-8.36L298.15,237.6c2.53-4.44,3.8-6.66,5.41-7.48a6.12,6.12,0,0,1,5.53,0c1.61.82,2.89,3,5.41,7.48l12.19,21.27c2.77,4.83,4.16,7.26,4.77,9.81a18,18,0,0,1,0,8.45c-.61,2.55-2,5-4.74,9.82l-29,50.75c-2.8,4.89-4.19,7.35-6.14,9.21a18.2,18.2,0,0,1-7.38,4.28C281.68,351.89,278.86,351.89,273.2,351.89Z"/><path class="cls-2" d="M368.23,351.89h-34.4c-5.07,0-7.63,0-9.12-1a6.16,6.16,0,0,1-2.76-4.8c-.09-1.8,1.18-4,3.74-8.39l17.17-29.48c2.52-4.34,3.8-6.5,5.38-7.32a6.06,6.06,0,0,1,5.5,0c1.61.82,2.85,3,5.41,7.29l17.23,29.48c2.55,4.41,3.86,6.59,3.76,8.39a6.08,6.08,0,0,1-2.76,4.8C375.86,351.89,373.31,351.89,368.23,351.89Z"/></g></g></svg>