<svg xmlns="http://www.w3.org/2000/svg" viewBox="0 0 1066.61 310.08"><defs><style>.cls-1{fill:#0114fd;}.cls-2{fill:#3290fe;}.cls-3{fill:#fff;}</style></defs><g id="Capa_2" data-name="Capa 2"><g id="Capa_3" data-name="Capa 3"><path class="cls-1" d="M223.89,83.63V240.1a11.7,11.7,0,0,1-5.83,10.11l-100.71,58.3a11.68,11.68,0,0,1-11.72,0L5.83,250.67A11.71,11.71,0,0,1,0,240.55V83.29l54.93,33.16v92.14a11.69,11.69,0,0,0,6,10.21L106.12,244a11.63,11.63,0,0,0,6,1.47,11.51,11.51,0,0,0,5.61-1.58l44.6-26a11.69,11.69,0,0,0,5.8-10.08v-92Z"/><path class="cls-1" d="M216.46,57.49,160.3,89.88,112.1,62.36l-.61-.35-49,28.39L7.73,57.32,101.51,2.81a20.78,20.78,0,0,1,20.87,0Z"/><path class="cls-2" d="M160.3,89.88,112.1,62.36V0a20.62,20.62,0,0,1,10.28,2.81l94.08,54.68Z"/><path class="cls-2" d="M223.89,83.63V240.1a11.7,11.7,0,0,1-5.83,10.11l-100.71,58.3a11.67,11.67,0,0,1-5.25,1.56V245.51a11.51,11.51,0,0,0,5.61-1.58l44.6-26a11.69,11.69,0,0,0,5.8-10.08v-92Z"/><path class="cls-3" d="M317.84,133.26V109.17h96.09v24.09H373.67l6.26-6.26v98.87H352.1V127l6.26,6.26Z"/><path class="cls-3" d="M429.58,225.87v-120H457.4v120Zm56.69,0V176q0-6.78-3.3-10.05a11,11,0,0,0-8-3.26,15.34,15.34,0,0,0-8.78,2.7q-4,2.7-6.39,8.65t-2.4,15.78H449q0-18.43,4.39-30t12-16.95a29.09,29.09,0,0,1,17.26-5.39q11,0,18.05,4.95A28.83,28.83,0,0,1,511,156a55.91,55.91,0,0,1,3.3,19.92v49.91Z"/><path class="cls-3" d="M575.75,228.65a39.35,39.35,0,0,1-20.26-5.56,42.08,42.08,0,0,1-15.35-15.92q-5.86-10.33-5.87-24.52t5.83-24.3a40.63,40.63,0,0,1,35.65-20.91,39,39,0,0,1,18.78,4.3,35.64,35.64,0,0,1,12.92,11.61,41.22,41.22,0,0,1,6.43,16.48,49,49,0,0,1-.65,18.91h-57V174.65h36.61l-4,2.61a25.61,25.61,0,0,0-.22-6.17,18.29,18.29,0,0,0-1.86-5.79,11.1,11.1,0,0,0-4-4.26,12.2,12.2,0,0,0-6.57-1.6,13.18,13.18,0,0,0-12.74,8.3,24.6,24.6,0,0,0-1.78,9.87v11a25.77,25.77,0,0,0,1.57,9.47,13.42,13.42,0,0,0,4.65,6.22,13,13,0,0,0,7.78,2.22,13.73,13.73,0,0,0,6.7-1.57,8.43,8.43,0,0,0,4-4.95H614.1a31.56,31.56,0,0,1-6.39,14.52,35.69,35.69,0,0,1-13.22,10.35A43.56,43.56,0,0,1,575.75,228.65Z"/><path class="cls-3" d="M672.62,195l25.22-85.83h29l-38.61,116.7H658.88L621,109.17h29.39L675.06,195Z"/><path class="cls-3" d="M765.4,228.65q-11.48,0-19.34-3.87a27.07,27.07,0,0,1-15.87-25.08,21.09,21.09,0,0,1,4.17-13.09q4.17-5.52,12.39-8.57T767,175a94.68,94.68,0,0,1,12.91.78q5.61.78,11.52,1.92v15.65a87.08,87.08,0,0,0-9-1.48,80.94,80.94,0,0,0-9.08-.52q-6.18,0-9.79,2a6.74,6.74,0,0,0-3.61,6.4c0,2.14,1.08,4,3.22,5.6s5.54,2.4,10.18,2.4c3.94,0,7-.79,9.3-2.35a12.75,12.75,0,0,0,4.78-5.91,19.26,19.26,0,0,0,1.39-7.05h6.53a51.1,51.1,0,0,1-3.13,18.18,28.74,28.74,0,0,1-9.74,13.17Q775.83,228.65,765.4,228.65Zm27-2.78L788.79,203V170.91q0-6.43-2.34-10t-10-3.56a17.11,17.11,0,0,0-7.35,1.35,9.45,9.45,0,0,0-4.18,3.56,9.12,9.12,0,0,0-1.34,4.83H733.49q0-10.09,4.78-16.65t14.35-9.79q9.57-3.21,23.83-3.21,12.43,0,21.43,3.82a29.75,29.75,0,0,1,13.87,11.48q4.88,7.65,4.87,19.22v53.91Z"/><path class="cls-3" d="M843.23,139.7h27.82v51.82c0,3.94,1,6.86,3,8.74a10.76,10.76,0,0,0,7.7,2.83,19,19,0,0,0,8.48-2.09,16.51,16.51,0,0,0,7-7.13q2.78-5,2.78-14h6.09q0,17-3.92,27.52t-10.65,15.26a25.72,25.72,0,0,1-15.26,4.79,44,44,0,0,1-16.17-3,25.3,25.3,0,0,1-12.22-10.09q-4.65-7.12-4.65-19.65Zm56.78,0h27.83v86.17H900Z"/><path class="cls-3" d="M957.14,225.87v-120H985v120Z"/><path class="cls-3" d="M1005.05,158.22v-18h57.65v18Zm41.13,70.43a39.23,39.23,0,0,1-15.26-3,25.28,25.28,0,0,1-11.39-9.26q-4.31-6.31-4.31-16.22V118.57h28v80.6q0,7.83,7.74,7.83a26.24,26.24,0,0,0,5.18-.56,49.61,49.61,0,0,0,6.39-1.87l4.08,19.39q-5.29,1.9-10.13,3.3A36.89,36.89,0,0,1,1046.18,228.65Z"/></g></g></svg>