<svg width="200" height="200" viewBox="0 0 200 200" fill="none" xmlns="http://www.w3.org/2000/svg"><g clip-path="url(#clip0_603_81)"><path d="M197.554 100.027C197.554 153.89 153.89 197.554 100.027 197.554C46.1643 197.554 2.5 153.89 2.5 100.027C2.5 46.1643 46.1643 2.5 100.027 2.5C153.89 2.5 197.554 46.1643 197.554 100.027Z" fill="#31386B" stroke="#F7F7F7" stroke-width="5"/><path d="M105.545 93.7517C106.023 93.7517 106.411 93.3642 106.411 92.8861C106.411 92.4081 106.023 92.0206 105.545 92.0206C105.067 92.0206 104.679 92.4081 104.679 92.8861C104.679 93.3642 105.067 93.7517 105.545 93.7517Z" fill="white"/><path d="M101.812 97.4844C102.29 97.4844 102.678 97.0969 102.678 96.6189C102.678 96.1408 102.29 95.7533 101.812 95.7533C101.334 95.7533 100.947 96.1408 100.947 96.6189C100.947 97.0969 101.334 97.4844 101.812 97.4844Z" fill="white"/><path d="M95.591 104.517C96.5172 104.517 97.268 103.766 97.268 102.84C97.268 101.914 96.5172 101.163 95.591 101.163C94.6648 101.163 93.9139 101.914 93.9139 102.84C93.9139 103.766 94.6648 104.517 95.591 104.517Z" fill="white"/><path d="M123.614 75.5207C124.092 75.5207 124.479 75.1332 124.479 74.6551C124.479 74.1771 124.092 73.7896 123.614 73.7896C123.136 73.7896 122.748 74.1771 122.748 74.6551C122.748 75.1332 123.136 75.5207 123.614 75.5207Z" fill="white"/><path d="M121.828 77.36C122.306 77.36 122.694 76.9725 122.694 76.4945C122.694 76.0164 122.306 75.6289 121.828 75.6289C121.35 75.6289 120.963 76.0164 120.963 76.4945C120.963 76.9725 121.35 77.36 121.828 77.36Z" fill="white"/><path d="M118.42 80.7682C118.898 80.7682 119.286 80.3807 119.286 79.9026C119.286 79.4246 118.898 79.0371 118.42 79.0371C117.942 79.0371 117.555 79.4246 117.555 79.9026C117.555 80.3807 117.942 80.7682 118.42 80.7682Z" fill="white"/><path d="M114.471 84.8255C114.949 84.8255 115.337 84.438 115.337 83.96C115.337 83.4819 114.949 83.0944 114.471 83.0944C113.993 83.0944 113.606 83.4819 113.606 83.96C113.606 84.438 113.993 84.8255 114.471 84.8255Z" fill="white"/><path d="M110.684 88.6124C111.162 88.6124 111.55 88.2249 111.55 87.7468C111.55 87.2688 111.162 86.8813 110.684 86.8813C110.206 86.8813 109.819 87.2688 109.819 87.7468C109.819 88.2249 110.206 88.6124 110.684 88.6124Z" fill="white"/><path d="M88.8288 110.468C89.3068 110.468 89.6943 110.08 89.6943 109.602C89.6943 109.124 89.3068 108.737 88.8288 108.737C88.3507 108.737 87.9632 109.124 87.9632 109.602C87.9632 110.08 88.3507 110.468 88.8288 110.468Z" fill="white"/><path d="M83.419 115.878C83.897 115.878 84.2845 115.49 84.2845 115.012C84.2845 114.534 83.897 114.147 83.419 114.147C82.9409 114.147 82.5534 114.534 82.5534 115.012C82.5534 115.49 82.9409 115.878 83.419 115.878Z" fill="white"/><path d="M80.7682 118.529C81.2463 118.529 81.6338 118.141 81.6338 117.663C81.6338 117.185 81.2463 116.797 80.7682 116.797C80.2902 116.797 79.9026 117.185 79.9026 117.663C79.9026 118.141 80.2902 118.529 80.7682 118.529Z" fill="white"/><path d="M105.383 93.5894C105.861 93.5894 106.248 93.2019 106.248 92.7238C106.248 92.2458 105.861 91.8583 105.383 91.8583C104.905 91.8583 104.517 92.2458 104.517 92.7238C104.517 93.2019 104.905 93.5894 105.383 93.5894Z" fill="white"/><path d="M101.65 98.0254C102.487 98.0254 103.165 97.3473 103.165 96.5107C103.165 95.6741 102.487 94.996 101.65 94.996C100.813 94.996 100.135 95.6741 100.135 96.5107C100.135 97.3473 100.813 98.0254 101.65 98.0254Z" fill="white"/><path d="M95.4287 104.355C96.3549 104.355 97.1058 103.604 97.1058 102.678C97.1058 101.752 96.3549 101.001 95.4287 101.001C94.5025 101.001 93.7517 101.752 93.7517 102.678C93.7517 103.604 94.5025 104.355 95.4287 104.355Z" fill="white"/><path d="M103.543 112.524C104.47 112.524 105.22 111.773 105.22 110.847C105.22 109.92 104.47 109.17 103.543 109.17C102.617 109.17 101.866 109.92 101.866 110.847C101.866 111.773 102.617 112.524 103.543 112.524Z" fill="white"/><path d="M97.0517 119.502C97.9779 119.502 98.7287 118.751 98.7287 117.825C98.7287 116.899 97.9779 116.148 97.0517 116.148C96.1255 116.148 95.3746 116.899 95.3746 117.825C95.3746 118.751 96.1255 119.502 97.0517 119.502Z" fill="white"/><path d="M91.2091 124.317C92.0456 124.317 92.7238 123.639 92.7238 122.802C92.7238 121.966 92.0456 121.288 91.2091 121.288C90.3725 121.288 89.6943 121.966 89.6943 122.802C89.6943 123.639 90.3725 124.317 91.2091 124.317Z" fill="white"/><path d="M88.4501 127.076C89.1074 127.076 89.6403 126.543 89.6403 125.886C89.6403 125.229 89.1074 124.696 88.4501 124.696C87.7928 124.696 87.2599 125.229 87.2599 125.886C87.2599 126.543 87.7928 127.076 88.4501 127.076Z" fill="white"/><path d="M96.0238 133.946C96.6811 133.946 97.2139 133.414 97.2139 132.756C97.2139 132.099 96.6811 131.566 96.0238 131.566C95.3665 131.566 94.8336 132.099 94.8336 132.756C94.8336 133.414 95.3665 133.946 96.0238 133.946Z" fill="white"/><path d="M99.5401 131.945C100.377 131.945 101.055 131.267 101.055 130.43C101.055 129.594 100.377 128.915 99.5401 128.915C98.7036 128.915 98.0254 129.594 98.0254 130.43C98.0254 131.267 98.7036 131.945 99.5401 131.945Z" fill="white"/><path d="M108.304 138.274C109.141 138.274 109.819 137.596 109.819 136.76C109.819 135.923 109.141 135.245 108.304 135.245C107.467 135.245 106.789 135.923 106.789 136.76C106.789 137.596 107.467 138.274 108.304 138.274Z" fill="white"/><path d="M105.87 127.563C106.796 127.563 107.547 126.812 107.547 125.886C107.547 124.96 106.796 124.209 105.87 124.209C104.943 124.209 104.193 124.96 104.193 125.886C104.193 126.812 104.943 127.563 105.87 127.563Z" fill="white"/><path d="M114.579 134.65C115.506 134.65 116.256 133.899 116.256 132.973C116.256 132.046 115.506 131.296 114.579 131.296C113.653 131.296 112.902 132.046 112.902 132.973C112.902 133.899 113.653 134.65 114.579 134.65Z" fill="white"/><path d="M120.747 127.292C121.673 127.292 122.424 126.542 122.424 125.615C122.424 124.689 121.673 123.938 120.747 123.938C119.82 123.938 119.07 124.689 119.07 125.615C119.07 126.542 119.82 127.292 120.747 127.292Z" fill="white"/><path d="M128.699 133.297C129.625 133.297 130.376 132.546 130.376 131.62C130.376 130.694 129.625 129.943 128.699 129.943C127.773 129.943 127.022 130.694 127.022 131.62C127.022 132.546 127.773 133.297 128.699 133.297Z" fill="white"/><path d="M122.748 140.438C123.674 140.438 124.425 139.687 124.425 138.761C124.425 137.835 123.674 137.084 122.748 137.084C121.822 137.084 121.071 137.835 121.071 138.761C121.071 139.687 121.822 140.438 122.748 140.438Z" fill="white"/><path d="M116.365 144.225C117.201 144.225 117.879 143.547 117.879 142.71C117.879 141.874 117.201 141.196 116.365 141.196C115.528 141.196 114.85 141.874 114.85 142.71C114.85 143.547 115.528 144.225 116.365 144.225Z" fill="white"/><path d="M110.955 144.766C111.612 144.766 112.145 144.233 112.145 143.576C112.145 142.919 111.612 142.386 110.955 142.386C110.298 142.386 109.765 142.919 109.765 143.576C109.765 144.233 110.298 144.766 110.955 144.766Z" fill="white"/><path d="M103.543 139.843C104.201 139.843 104.734 139.31 104.734 138.653C104.734 137.996 104.201 137.463 103.543 137.463C102.886 137.463 102.353 137.996 102.353 138.653C102.353 139.31 102.886 139.843 103.543 139.843Z" fill="white"/><path d="M124.804 119.394C125.64 119.394 126.319 118.716 126.319 117.879C126.319 117.043 125.64 116.365 124.804 116.365C123.967 116.365 123.289 117.043 123.289 117.879C123.289 118.716 123.967 119.394 124.804 119.394Z" fill="white"/><path d="M131.783 124.75C132.619 124.75 133.297 124.072 133.297 123.235C133.297 122.398 132.619 121.72 131.783 121.72C130.946 121.72 130.268 122.398 130.268 123.235C130.268 124.072 130.946 124.75 131.783 124.75Z" fill="white"/><path d="M131.512 117.338C131.99 117.338 132.378 116.951 132.378 116.473C132.378 115.995 131.99 115.607 131.512 115.607C131.034 115.607 130.646 115.995 130.646 116.473C130.646 116.951 131.034 117.338 131.512 117.338Z" fill="white"/><path d="M137.517 121.233C137.995 121.233 138.382 120.846 138.382 120.368C138.382 119.89 137.995 119.502 137.517 119.502C137.039 119.502 136.651 119.89 136.651 120.368C136.651 120.846 137.039 121.233 137.517 121.233Z" fill="white"/><path d="M138.491 129.348C139.327 129.348 140.005 128.67 140.005 127.833C140.005 126.997 139.327 126.319 138.491 126.319C137.654 126.319 136.976 126.997 136.976 127.833C136.976 128.67 137.654 129.348 138.491 129.348Z" fill="white"/><path d="M136.164 137.679C137.091 137.679 137.842 136.928 137.842 136.002C137.842 135.076 137.091 134.325 136.164 134.325C135.238 134.325 134.487 135.076 134.487 136.002C134.487 136.928 135.238 137.679 136.164 137.679Z" fill="white"/><path d="M130.592 145.037C131.519 145.037 132.269 144.286 132.269 143.359C132.269 142.433 131.519 141.682 130.592 141.682C129.666 141.682 128.915 142.433 128.915 143.359C128.915 144.286 129.666 145.037 130.592 145.037Z" fill="white"/><path d="M123.56 148.228C124.396 148.228 125.074 147.55 125.074 146.714C125.074 145.877 124.396 145.199 123.56 145.199C122.723 145.199 122.045 145.877 122.045 146.714C122.045 147.55 122.723 148.228 123.56 148.228Z" fill="white"/><path d="M124.209 151.636C124.866 151.636 125.399 151.104 125.399 150.446C125.399 149.789 124.866 149.256 124.209 149.256C123.552 149.256 123.019 149.789 123.019 150.446C123.019 151.104 123.552 151.636 124.209 151.636Z" fill="white"/><path d="M129.673 153.151C130.33 153.151 130.863 152.618 130.863 151.961C130.863 151.304 130.33 150.771 129.673 150.771C129.015 150.771 128.483 151.304 128.483 151.961C128.483 152.618 129.015 153.151 129.673 153.151Z" fill="white"/><path d="M136.219 152.556C136.697 152.556 137.084 152.169 137.084 151.691C137.084 151.213 136.697 150.825 136.219 150.825C135.741 150.825 135.353 151.213 135.353 151.691C135.353 152.169 135.741 152.556 136.219 152.556Z" fill="white"/><path d="M140.979 152.827C141.457 152.827 141.845 152.439 141.845 151.961C141.845 151.483 141.457 151.095 140.979 151.095C140.501 151.095 140.114 151.483 140.114 151.961C140.114 152.439 140.501 152.827 140.979 152.827Z" fill="white"/><path d="M144.658 152.448C145.136 152.448 145.523 152.06 145.523 151.582C145.523 151.104 145.136 150.717 144.658 150.717C144.18 150.717 143.792 151.104 143.792 151.582C143.792 152.06 144.18 152.448 144.658 152.448Z" fill="white"/><path d="M137.625 148.228C138.551 148.228 139.302 147.477 139.302 146.551C139.302 145.625 138.551 144.874 137.625 144.874C136.699 144.874 135.948 145.625 135.948 146.551C135.948 147.477 136.699 148.228 137.625 148.228Z" fill="white"/><path d="M143.197 150.068C144.034 150.068 144.712 149.389 144.712 148.553C144.712 147.716 144.034 147.038 143.197 147.038C142.361 147.038 141.682 147.716 141.682 148.553C141.682 149.389 142.361 150.068 143.197 150.068Z" fill="white"/><path d="M148.12 143.414C149.046 143.414 149.797 142.663 149.797 141.737C149.797 140.81 149.046 140.06 148.12 140.06C147.194 140.06 146.443 140.81 146.443 141.737C146.443 142.663 147.194 143.414 148.12 143.414Z" fill="white"/><path d="M153.368 135.461C154.115 135.461 154.72 134.856 154.72 134.109C154.72 133.362 154.115 132.756 153.368 132.756C152.621 132.756 152.015 133.362 152.015 134.109C152.015 134.856 152.621 135.461 153.368 135.461Z" fill="white"/><path d="M150.392 127.292C150.87 127.292 151.258 126.905 151.258 126.427C151.258 125.949 150.87 125.561 150.392 125.561C149.914 125.561 149.527 125.949 149.527 126.427C149.527 126.905 149.914 127.292 150.392 127.292Z" fill="white"/><path d="M147.038 122.694C147.516 122.694 147.904 122.307 147.904 121.829C147.904 121.35 147.516 120.963 147.038 120.963C146.56 120.963 146.173 121.35 146.173 121.829C146.173 122.307 146.56 122.694 147.038 122.694Z" fill="white"/><path d="M144.441 122.532C144.919 122.532 145.307 122.144 145.307 121.666C145.307 121.188 144.919 120.801 144.441 120.801C143.963 120.801 143.576 121.188 143.576 121.666C143.576 122.144 143.963 122.532 144.441 122.532Z" fill="white"/><path d="M141.412 121.342C141.89 121.342 142.278 120.954 142.278 120.476C142.278 119.998 141.89 119.611 141.412 119.611C140.934 119.611 140.546 119.998 140.546 120.476C140.546 120.954 140.934 121.342 141.412 121.342Z" fill="white"/><path d="M137.246 119.502C137.724 119.502 138.112 119.115 138.112 118.637C138.112 118.159 137.724 117.771 137.246 117.771C136.768 117.771 136.381 118.159 136.381 118.637C136.381 119.115 136.768 119.502 137.246 119.502Z" fill="white"/><path d="M148.553 122.369C149.031 122.369 149.418 121.982 149.418 121.504C149.418 121.026 149.031 120.638 148.553 120.638C148.075 120.638 147.687 121.026 147.687 121.504C147.687 121.982 148.075 122.369 148.553 122.369Z" fill="white"/><path d="M149.905 121.504C150.383 121.504 150.771 121.116 150.771 120.638C150.771 120.16 150.383 119.773 149.905 119.773C149.427 119.773 149.04 120.16 149.04 120.638C149.04 121.116 149.427 121.504 149.905 121.504Z" fill="white"/><path d="M156.127 125.94C156.605 125.94 156.992 125.552 156.992 125.074C156.992 124.596 156.605 124.209 156.127 124.209C155.649 124.209 155.261 124.596 155.261 125.074C155.261 125.552 155.649 125.94 156.127 125.94Z" fill="white"/><path d="M156.613 123.992C157.092 123.992 157.479 123.605 157.479 123.127C157.479 122.649 157.092 122.261 156.613 122.261C156.135 122.261 155.748 122.649 155.748 123.127C155.748 123.605 156.135 123.992 156.613 123.992Z" fill="white"/><path d="M159.967 127.022C160.446 127.022 160.833 126.634 160.833 126.156C160.833 125.678 160.446 125.291 159.967 125.291C159.489 125.291 159.102 125.678 159.102 126.156C159.102 126.634 159.489 127.022 159.967 127.022Z" fill="white"/><path d="M159.048 123.506C159.526 123.506 159.913 123.118 159.913 122.64C159.913 122.162 159.526 121.774 159.048 121.774C158.57 121.774 158.182 122.162 158.182 122.64C158.182 123.118 158.57 123.506 159.048 123.506Z" fill="white"/><path d="M156.397 121.504C156.875 121.504 157.263 121.116 157.263 120.638C157.263 120.16 156.875 119.773 156.397 119.773C155.919 119.773 155.531 120.16 155.531 120.638C155.531 121.116 155.919 121.504 156.397 121.504Z" fill="white"/><path d="M155.64 118.583C156.118 118.583 156.505 118.195 156.505 117.717C156.505 117.239 156.118 116.852 155.64 116.852C155.162 116.852 154.774 117.239 154.774 117.717C154.774 118.195 155.162 118.583 155.64 118.583Z" fill="white"/><path d="M154.233 115.174C154.711 115.174 155.099 114.787 155.099 114.309C155.099 113.831 154.711 113.443 154.233 113.443C153.755 113.443 153.368 113.831 153.368 114.309C153.368 114.787 153.755 115.174 154.233 115.174Z" fill="white"/><path d="M152.394 111.388C152.872 111.388 153.259 111 153.259 110.522C153.259 110.044 152.872 109.656 152.394 109.656C151.916 109.656 151.528 110.044 151.528 110.522C151.528 111 151.916 111.388 152.394 111.388Z" fill="white"/><path d="M155.207 115.715C155.685 115.715 156.072 115.328 156.072 114.85C156.072 114.372 155.685 113.984 155.207 113.984C154.729 113.984 154.341 114.372 154.341 114.85C154.341 115.328 154.729 115.715 155.207 115.715Z" fill="white"/><path d="M157.317 119.773C157.795 119.773 158.182 119.385 158.182 118.907C158.182 118.429 157.795 118.042 157.317 118.042C156.839 118.042 156.451 118.429 156.451 118.907C156.451 119.385 156.839 119.773 157.317 119.773Z" fill="white"/><path d="M150.392 120.206C150.87 120.206 151.258 119.818 151.258 119.34C151.258 118.862 150.87 118.474 150.392 118.474C149.914 118.474 149.527 118.862 149.527 119.34C149.527 119.818 149.914 120.206 150.392 120.206Z" fill="white"/><path d="M150.392 118.258C150.87 118.258 151.258 117.871 151.258 117.392C151.258 116.914 150.87 116.527 150.392 116.527C149.914 116.527 149.527 116.914 149.527 117.392C149.527 117.871 149.914 118.258 150.392 118.258Z" fill="white"/><path d="M149.797 115.445C150.275 115.445 150.663 115.057 150.663 114.579C150.663 114.101 150.275 113.714 149.797 113.714C149.319 113.714 148.932 114.101 148.932 114.579C148.932 115.057 149.319 115.445 149.797 115.445Z" fill="white"/><path d="M148.769 112.686C149.247 112.686 149.635 112.298 149.635 111.82C149.635 111.342 149.247 110.955 148.769 110.955C148.291 110.955 147.904 111.342 147.904 111.82C147.904 112.298 148.291 112.686 148.769 112.686Z" fill="white"/><path d="M147.254 109.602C147.733 109.602 148.12 109.215 148.12 108.737C148.12 108.259 147.733 107.871 147.254 107.871C146.776 107.871 146.389 108.259 146.389 108.737C146.389 109.215 146.776 109.602 147.254 109.602Z" fill="white"/><path d="M150.176 107.547C150.654 107.547 151.041 107.159 151.041 106.681C151.041 106.203 150.654 105.816 150.176 105.816C149.698 105.816 149.31 106.203 149.31 106.681C149.31 107.159 149.698 107.547 150.176 107.547Z" fill="white"/><path d="M147.525 103.706C148.003 103.706 148.391 103.318 148.391 102.84C148.391 102.362 148.003 101.975 147.525 101.975C147.047 101.975 146.659 102.362 146.659 102.84C146.659 103.318 147.047 103.706 147.525 103.706Z" fill="white"/><path d="M144.441 99.432C144.919 99.432 145.307 99.0444 145.307 98.5664C145.307 98.0884 144.919 97.7009 144.441 97.7009C143.963 97.7009 143.576 98.0884 143.576 98.5664C143.576 99.0444 143.963 99.432 144.441 99.432Z" fill="white"/><path d="M141.196 95.2664C141.674 95.2664 142.061 94.8789 142.061 94.4009C142.061 93.9228 141.674 93.5353 141.196 93.5353C140.717 93.5353 140.33 93.9228 140.33 94.4009C140.33 94.8789 140.717 95.2664 141.196 95.2664Z" fill="white"/><path d="M137.842 90.9386C138.32 90.9386 138.707 90.5511 138.707 90.073C138.707 89.595 138.32 89.2075 137.842 89.2075C137.363 89.2075 136.976 89.595 136.976 90.073C136.976 90.5511 137.363 90.9386 137.842 90.9386Z" fill="white"/><path d="M134.163 86.719C134.641 86.719 135.028 86.3314 135.028 85.8534C135.028 85.3754 134.641 84.9878 134.163 84.9878C133.685 84.9878 133.297 85.3754 133.297 85.8534C133.297 86.3314 133.685 86.719 134.163 86.719Z" fill="white"/><path d="M130.376 82.4993C130.854 82.4993 131.242 82.1118 131.242 81.6338C131.242 81.1557 130.854 80.7682 130.376 80.7682C129.898 80.7682 129.51 81.1557 129.51 81.6338C129.51 82.1118 129.898 82.4993 130.376 82.4993Z" fill="white"/><path d="M126.697 78.6043C127.175 78.6043 127.563 78.2167 127.563 77.7387C127.563 77.2607 127.175 76.8731 126.697 76.8731C126.219 76.8731 125.832 77.2607 125.832 77.7387C125.832 78.2167 126.219 78.6043 126.697 78.6043Z" fill="white"/><path d="M141.087 110.143C141.565 110.143 141.953 109.756 141.953 109.278C141.953 108.8 141.565 108.412 141.087 108.412C140.609 108.412 140.222 108.8 140.222 109.278C140.222 109.756 140.609 110.143 141.087 110.143Z" fill="white"/><path d="M145.361 106.356C145.839 106.356 146.227 105.969 146.227 105.491C146.227 105.013 145.839 104.625 145.361 104.625C144.883 104.625 144.495 105.013 144.495 105.491C144.495 105.969 144.883 106.356 145.361 106.356Z" fill="white"/><path d="M143.305 119.448C143.783 119.448 144.171 119.061 144.171 118.583C144.171 118.105 143.783 117.717 143.305 117.717C142.827 117.717 142.44 118.105 142.44 118.583C142.44 119.061 142.827 119.448 143.305 119.448Z" fill="white"/><path d="M143.305 117.825C143.783 117.825 144.171 117.438 144.171 116.96C144.171 116.482 143.783 116.094 143.305 116.094C142.827 116.094 142.44 116.482 142.44 116.96C142.44 117.438 142.827 117.825 143.305 117.825Z" fill="white"/><path d="M142.981 115.607C143.459 115.607 143.846 115.22 143.846 114.742C143.846 114.264 143.459 113.876 142.981 113.876C142.503 113.876 142.115 114.264 142.115 114.742C142.115 115.22 142.503 115.607 142.981 115.607Z" fill="white"/><path d="M142.169 113.173C142.647 113.173 143.035 112.785 143.035 112.307C143.035 111.829 142.647 111.442 142.169 111.442C141.691 111.442 141.304 111.829 141.304 112.307C141.304 112.785 141.691 113.173 142.169 113.173Z" fill="white"/><path d="M139.519 107.168C139.997 107.168 140.384 106.78 140.384 106.302C140.384 105.824 139.997 105.437 139.519 105.437C139.04 105.437 138.653 105.824 138.653 106.302C138.653 106.78 139.04 107.168 139.519 107.168Z" fill="white"/><path d="M142.873 102.624C143.351 102.624 143.738 102.236 143.738 101.758C143.738 101.28 143.351 100.893 142.873 100.893C142.395 100.893 142.007 101.28 142.007 101.758C142.007 102.236 142.395 102.624 142.873 102.624Z" fill="white"/><path d="M142.71 120.801C143.188 120.801 143.576 120.413 143.576 119.935C143.576 119.457 143.188 119.07 142.71 119.07C142.232 119.07 141.845 119.457 141.845 119.935C141.845 120.413 142.232 120.801 142.71 120.801Z" fill="white"/><path d="M137.409 104.03C137.887 104.03 138.274 103.643 138.274 103.165C138.274 102.687 137.887 102.299 137.409 102.299C136.931 102.299 136.543 102.687 136.543 103.165C136.543 103.643 136.931 104.03 137.409 104.03Z" fill="white"/><path d="M140.438 98.9992C140.916 98.9992 141.304 98.6117 141.304 98.1336C141.304 97.6556 140.916 97.2681 140.438 97.2681C139.96 97.2681 139.573 97.6556 139.573 98.1336C139.573 98.6117 139.96 98.9992 140.438 98.9992Z" fill="white"/><path d="M135.245 100.676C135.723 100.676 136.11 100.289 136.11 99.8107C136.11 99.3326 135.723 98.9451 135.245 98.9451C134.767 98.9451 134.379 99.3326 134.379 99.8107C134.379 100.289 134.767 100.676 135.245 100.676Z" fill="white"/><path d="M137.733 95.1041C138.211 95.1041 138.599 94.7166 138.599 94.2386C138.599 93.7605 138.211 93.373 137.733 93.373C137.255 93.373 136.868 93.7605 136.868 94.2386C136.868 94.7166 137.255 95.1041 137.733 95.1041Z" fill="white"/><path d="M132.756 97.214C133.234 97.214 133.622 96.8264 133.622 96.3484C133.622 95.8703 133.234 95.4828 132.756 95.4828C132.278 95.4828 131.891 95.8703 131.891 96.3484C131.891 96.8264 132.278 97.214 132.756 97.214Z" fill="white"/><path d="M134.596 91.4255C135.074 91.4255 135.461 91.0379 135.461 90.5599C135.461 90.0819 135.074 89.6943 134.596 89.6943C134.118 89.6943 133.73 90.0819 133.73 90.5599C133.73 91.0379 134.118 91.4255 134.596 91.4255Z" fill="white"/><path d="M130.051 93.5894C130.529 93.5894 130.917 93.2019 130.917 92.7238C130.917 92.2458 130.529 91.8583 130.051 91.8583C129.573 91.8583 129.186 92.2458 129.186 92.7238C129.186 93.2019 129.573 93.5894 130.051 93.5894Z" fill="white"/><path d="M131.404 87.5845C131.882 87.5845 132.269 87.197 132.269 86.719C132.269 86.2409 131.882 85.8534 131.404 85.8534C130.926 85.8534 130.538 86.2409 130.538 86.719C130.538 87.197 130.926 87.5845 131.404 87.5845Z" fill="white"/><path d="M127.13 90.1812C127.608 90.1812 127.996 89.7937 127.996 89.3157C127.996 88.8376 127.608 88.4501 127.13 88.4501C126.652 88.4501 126.265 88.8376 126.265 89.3157C126.265 89.7937 126.652 90.1812 127.13 90.1812Z" fill="white"/><path d="M127.779 83.6895C128.257 83.6895 128.645 83.302 128.645 82.8239C128.645 82.3459 128.257 81.9583 127.779 81.9583C127.301 81.9583 126.914 82.3459 126.914 82.8239C126.914 83.302 127.301 83.6895 127.779 83.6895Z" fill="white"/><path d="M123.884 86.6108C124.362 86.6108 124.75 86.2232 124.75 85.7452C124.75 85.2672 124.362 84.8796 123.884 84.8796C123.406 84.8796 123.019 85.2672 123.019 85.7452C123.019 86.2232 123.406 86.6108 123.884 86.6108Z" fill="white"/><path d="M124.912 80.3895C125.39 80.3895 125.778 80.002 125.778 79.5239C125.778 79.0459 125.39 78.6584 124.912 78.6584C124.434 78.6584 124.047 79.0459 124.047 79.5239C124.047 80.002 124.434 80.3895 124.912 80.3895Z" fill="white"/><path d="M121.504 83.8518C121.982 83.8518 122.369 83.4642 122.369 82.9862C122.369 82.5082 121.982 82.1206 121.504 82.1206C121.026 82.1206 120.638 82.5082 120.638 82.9862C120.638 83.4642 121.026 83.8518 121.504 83.8518Z" fill="white"/><path d="M123.614 75.5207C124.092 75.5207 124.479 75.1332 124.479 74.6551C124.479 74.1771 124.092 73.7896 123.614 73.7896C123.136 73.7896 122.748 74.1771 122.748 74.6551C122.748 75.1332 123.136 75.5207 123.614 75.5207Z" fill="white"/><path d="M121.828 77.3059C122.306 77.3059 122.694 76.9184 122.694 76.4404C122.694 75.9623 122.306 75.5748 121.828 75.5748C121.35 75.5748 120.963 75.9623 120.963 76.4404C120.963 76.9184 121.35 77.3059 121.828 77.3059Z" fill="white"/><path d="M118.366 80.7141C118.844 80.7141 119.232 80.3266 119.232 79.8485C119.232 79.3705 118.844 78.983 118.366 78.983C117.888 78.983 117.501 79.3705 117.501 79.8485C117.501 80.3266 117.888 80.7141 118.366 80.7141Z" fill="white"/><path d="M128.158 100.622C128.636 100.622 129.023 100.235 129.023 99.7566C129.023 99.2785 128.636 98.891 128.158 98.891C127.68 98.891 127.292 99.2785 127.292 99.7566C127.292 100.235 127.68 100.622 128.158 100.622Z" fill="white"/><path d="M124.317 104.409C124.795 104.409 125.183 104.021 125.183 103.543C125.183 103.065 124.795 102.678 124.317 102.678C123.839 102.678 123.451 103.065 123.451 103.543C123.451 104.021 123.839 104.409 124.317 104.409Z" fill="white"/><path d="M130.484 103.814C130.962 103.814 131.35 103.426 131.35 102.948C131.35 102.47 130.962 102.083 130.484 102.083C130.006 102.083 129.619 102.47 129.619 102.948C129.619 103.426 130.006 103.814 130.484 103.814Z" fill="white"/><path d="M130.484 103.814C130.962 103.814 131.35 103.426 131.35 102.948C131.35 102.47 130.962 102.083 130.484 102.083C130.006 102.083 129.619 102.47 129.619 102.948C129.619 103.426 130.006 103.814 130.484 103.814Z" fill="white"/><path d="M127.184 108.304C127.662 108.304 128.05 107.917 128.05 107.438C128.05 106.96 127.662 106.573 127.184 106.573C126.706 106.573 126.319 106.96 126.319 107.438C126.319 107.917 126.706 108.304 127.184 108.304Z" fill="white"/><path d="M132.323 107.168C132.802 107.168 133.189 106.78 133.189 106.302C133.189 105.824 132.802 105.437 132.323 105.437C131.845 105.437 131.458 105.824 131.458 106.302C131.458 106.78 131.845 107.168 132.323 107.168Z" fill="white"/><path d="M128.969 111.712C129.447 111.712 129.835 111.325 129.835 110.847C129.835 110.369 129.447 109.981 128.969 109.981C128.491 109.981 128.104 110.369 128.104 110.847C128.104 111.325 128.491 111.712 128.969 111.712Z" fill="white"/><path d="M134.163 110.468C134.641 110.468 135.028 110.08 135.028 109.602C135.028 109.124 134.641 108.737 134.163 108.737C133.685 108.737 133.297 109.124 133.297 109.602C133.297 110.08 133.685 110.468 134.163 110.468Z" fill="white"/><path d="M130.592 114.904C131.07 114.904 131.458 114.516 131.458 114.038C131.458 113.56 131.07 113.173 130.592 113.173C130.114 113.173 129.727 113.56 129.727 114.038C129.727 114.516 130.114 114.904 130.592 114.904Z" fill="white"/><path d="M135.461 113.389C135.939 113.389 136.327 113.002 136.327 112.524C136.327 112.046 135.939 111.658 135.461 111.658C134.983 111.658 134.596 112.046 134.596 112.524C134.596 113.002 134.983 113.389 135.461 113.389Z" fill="white"/><path d="M136.543 116.094C137.021 116.094 137.409 115.707 137.409 115.229C137.409 114.751 137.021 114.363 136.543 114.363C136.065 114.363 135.677 114.751 135.677 115.229C135.677 115.707 136.065 116.094 136.543 116.094Z" fill="white"/><path d="M137.246 118.745C137.724 118.745 138.112 118.357 138.112 117.879C138.112 117.401 137.724 117.014 137.246 117.014C136.768 117.014 136.381 117.401 136.381 117.879C136.381 118.357 136.768 118.745 137.246 118.745Z" fill="white"/><path d="M125.724 97.214C126.202 97.214 126.589 96.8264 126.589 96.3484C126.589 95.8703 126.202 95.4828 125.724 95.4828C125.246 95.4828 124.858 95.8703 124.858 96.3484C124.858 96.8264 125.246 97.214 125.724 97.214Z" fill="white"/><path d="M121.883 101.055C122.361 101.055 122.748 100.667 122.748 100.189C122.748 99.7113 122.361 99.3238 121.883 99.3238C121.405 99.3238 121.017 99.7113 121.017 100.189C121.017 100.667 121.405 101.055 121.883 101.055Z" fill="white"/><path d="M122.64 93.6976C123.118 93.6976 123.506 93.3101 123.506 92.832C123.506 92.354 123.118 91.9665 122.64 91.9665C122.162 91.9665 121.774 92.354 121.774 92.832C121.774 93.3101 122.162 93.6976 122.64 93.6976Z" fill="white"/><path d="M119.069 97.3222C119.547 97.3222 119.935 96.9346 119.935 96.4566C119.935 95.9785 119.547 95.591 119.069 95.591C118.591 95.591 118.204 95.9785 118.204 96.4566C118.204 96.9346 118.591 97.3222 119.069 97.3222Z" fill="white"/><path d="M119.773 90.5058C120.251 90.5058 120.638 90.1183 120.638 89.6403C120.638 89.1622 120.251 88.7747 119.773 88.7747C119.295 88.7747 118.907 89.1622 118.907 89.6403C118.907 90.1183 119.295 90.5058 119.773 90.5058Z" fill="white"/><path d="M116.148 94.1304C116.626 94.1304 117.014 93.7428 117.014 93.2648C117.014 92.7868 116.626 92.3992 116.148 92.3992C115.67 92.3992 115.283 92.7868 115.283 93.2648C115.283 93.7428 115.67 94.1304 116.148 94.1304Z" fill="white"/><path d="M117.501 87.855C117.979 87.855 118.366 87.4675 118.366 86.9895C118.366 86.5114 117.979 86.1239 117.501 86.1239C117.023 86.1239 116.635 86.5114 116.635 86.9895C116.635 87.4675 117.023 87.855 117.501 87.855Z" fill="white"/><path d="M113.714 91.6419C114.192 91.6419 114.579 91.2544 114.579 90.7763C114.579 90.2983 114.192 89.9107 113.714 89.9107C113.236 89.9107 112.848 90.2983 112.848 90.7763C112.848 91.2544 113.236 91.6419 113.714 91.6419Z" fill="white"/><path d="M114.309 84.6632C114.787 84.6632 115.174 84.2757 115.174 83.7977C115.174 83.3196 114.787 82.9321 114.309 82.9321C113.831 82.9321 113.443 83.3196 113.443 83.7977C113.443 84.2757 113.831 84.6632 114.309 84.6632Z" fill="white"/><path d="M110.522 88.4501C111 88.4501 111.388 88.0626 111.388 87.5845C111.388 87.1065 111 86.719 110.522 86.719C110.044 86.719 109.656 87.1065 109.656 87.5845C109.656 88.0626 110.044 88.4501 110.522 88.4501Z" fill="white"/><path d="M153.043 127.563C153.521 127.563 153.909 127.175 153.909 126.697C153.909 126.219 153.521 125.832 153.043 125.832C152.565 125.832 152.177 126.219 152.177 126.697C152.177 127.175 152.565 127.563 153.043 127.563Z" fill="white"/><path d="M155.261 127.076C155.739 127.076 156.127 126.688 156.127 126.21C156.127 125.732 155.739 125.345 155.261 125.345C154.783 125.345 154.395 125.732 154.395 126.21C154.395 126.688 154.783 127.076 155.261 127.076Z" fill="white"/><path d="M156.397 135.245C156.965 135.245 157.425 134.785 157.425 134.217C157.425 133.649 156.965 133.189 156.397 133.189C155.829 133.189 155.369 133.649 155.369 134.217C155.369 134.785 155.829 135.245 156.397 135.245Z" fill="white"/><path d="M158.669 134.163C159.147 134.163 159.535 133.775 159.535 133.297C159.535 132.819 159.147 132.432 158.669 132.432C158.191 132.432 157.804 132.819 157.804 133.297C157.804 133.775 158.191 134.163 158.669 134.163Z" fill="white"/><path d="M159.859 132.486C160.337 132.486 160.725 132.098 160.725 131.62C160.725 131.142 160.337 130.755 159.859 130.755C159.381 130.755 158.994 131.142 158.994 131.62C158.994 132.098 159.381 132.486 159.859 132.486Z" fill="white"/><path d="M160.238 129.997C160.716 129.997 161.104 129.61 161.104 129.132C161.104 128.654 160.716 128.266 160.238 128.266C159.76 128.266 159.372 128.654 159.372 129.132C159.372 129.61 159.76 129.997 160.238 129.997Z" fill="white"/><path d="M152.502 143.9C153.249 143.9 153.854 143.295 153.854 142.548C153.854 141.801 153.249 141.196 152.502 141.196C151.755 141.196 151.15 141.801 151.15 142.548C151.15 143.295 151.755 143.9 152.502 143.9Z" fill="white"/><path d="M151.42 149.689C151.988 149.689 152.448 149.229 152.448 148.661C152.448 148.093 151.988 147.633 151.42 147.633C150.852 147.633 150.392 148.093 150.392 148.661C150.392 149.229 150.852 149.689 151.42 149.689Z" fill="white"/><path d="M154.125 147.633C154.603 147.633 154.991 147.246 154.991 146.768C154.991 146.29 154.603 145.902 154.125 145.902C153.647 145.902 153.259 146.29 153.259 146.768C153.259 147.246 153.647 147.633 154.125 147.633Z" fill="white"/><path d="M147.904 150.122C148.382 150.122 148.769 149.734 148.769 149.256C148.769 148.778 148.382 148.391 147.904 148.391C147.426 148.391 147.038 148.778 147.038 149.256C147.038 149.734 147.426 150.122 147.904 150.122Z" fill="white"/><path d="M155.91 143.143C156.478 143.143 156.938 142.683 156.938 142.115C156.938 141.548 156.478 141.087 155.91 141.087C155.343 141.087 154.882 141.548 154.882 142.115C154.882 142.683 155.343 143.143 155.91 143.143Z" fill="white"/><path d="M158.29 141.737C158.769 141.737 159.156 141.349 159.156 140.871C159.156 140.393 158.769 140.005 158.29 140.005C157.812 140.005 157.425 140.393 157.425 140.871C157.425 141.349 157.812 141.737 158.29 141.737Z" fill="white"/><path d="M159.643 139.519C160.121 139.519 160.508 139.131 160.508 138.653C160.508 138.175 160.121 137.787 159.643 137.787C159.165 137.787 158.777 138.175 158.777 138.653C158.777 139.131 159.165 139.519 159.643 139.519Z" fill="white"/><path d="M160.076 136.76C160.554 136.76 160.941 136.372 160.941 135.894C160.941 135.416 160.554 135.028 160.076 135.028C159.598 135.028 159.21 135.416 159.21 135.894C159.21 136.372 159.598 136.76 160.076 136.76Z" fill="white"/><path d="M149.31 134.596C150.147 134.596 150.825 133.917 150.825 133.081C150.825 132.244 150.147 131.566 149.31 131.566C148.474 131.566 147.796 132.244 147.796 133.081C147.796 133.917 148.474 134.596 149.31 134.596Z" fill="white"/><path d="M146.714 126.319C147.192 126.319 147.579 125.931 147.579 125.453C147.579 124.975 147.192 124.588 146.714 124.588C146.236 124.588 145.848 124.975 145.848 125.453C145.848 125.931 146.236 126.319 146.714 126.319Z" fill="white"/><path d="M142.764 141.087C143.691 141.087 144.441 140.337 144.441 139.41C144.441 138.484 143.691 137.733 142.764 137.733C141.838 137.733 141.087 138.484 141.087 139.41C141.087 140.337 141.838 141.087 142.764 141.087Z" fill="white"/><path d="M144.496 132.161C145.332 132.161 146.01 131.483 146.01 130.646C146.01 129.81 145.332 129.132 144.496 129.132C143.659 129.132 142.981 129.81 142.981 130.646C142.981 131.483 143.659 132.161 144.496 132.161Z" fill="white"/><path d="M142.548 124.155C143.026 124.155 143.413 123.767 143.413 123.289C143.413 122.811 143.026 122.424 142.548 122.424C142.07 122.424 141.682 122.811 141.682 123.289C141.682 123.767 142.07 124.155 142.548 124.155Z" fill="white"/><path d="M118.042 148.715C118.699 148.715 119.232 148.182 119.232 147.525C119.232 146.868 118.699 146.335 118.042 146.335C117.384 146.335 116.851 146.868 116.851 147.525C116.851 148.182 117.384 148.715 118.042 148.715Z" fill="white"/><path d="M125.345 112.361C125.823 112.361 126.21 111.974 126.21 111.496C126.21 111.018 125.823 110.63 125.345 110.63C124.867 110.63 124.479 111.018 124.479 111.496C124.479 111.974 124.867 112.361 125.345 112.361Z" fill="white"/><path d="M112.145 120.368C113.071 120.368 113.822 119.617 113.822 118.691C113.822 117.765 113.071 117.014 112.145 117.014C111.219 117.014 110.468 117.765 110.468 118.691C110.468 119.617 111.219 120.368 112.145 120.368Z" fill="white"/><path d="M116.906 112.686C117.742 112.686 118.42 112.008 118.42 111.171C118.42 110.335 117.742 109.656 116.906 109.656C116.069 109.656 115.391 110.335 115.391 111.171C115.391 112.008 116.069 112.686 116.906 112.686Z" fill="white"/><path d="M118.745 106.573C119.223 106.573 119.611 106.185 119.611 105.707C119.611 105.229 119.223 104.842 118.745 104.842C118.267 104.842 117.879 105.229 117.879 105.707C117.879 106.185 118.267 106.573 118.745 106.573Z" fill="white"/><path d="M109.17 105.545C110.006 105.545 110.684 104.867 110.684 104.03C110.684 103.194 110.006 102.516 109.17 102.516C108.333 102.516 107.655 103.194 107.655 104.03C107.655 104.867 108.333 105.545 109.17 105.545Z" fill="white"/><path d="M112.307 100.568C112.785 100.568 113.173 100.181 113.173 99.7025C113.173 99.2244 112.785 98.8369 112.307 98.8369C111.829 98.8369 111.442 99.2244 111.442 99.7025C111.442 100.181 111.829 100.568 112.307 100.568Z" fill="white"/><path d="M88.6665 111.117C89.5927 111.117 90.3435 110.366 90.3435 109.44C90.3435 108.514 89.5927 107.763 88.6665 107.763C87.7403 107.763 86.9894 108.514 86.9894 109.44C86.9894 110.366 87.7403 111.117 88.6665 111.117Z" fill="white"/><path d="M83.2567 116.365C84.0932 116.365 84.7714 115.686 84.7714 114.85C84.7714 114.013 84.0932 113.335 83.2567 113.335C82.4201 113.335 81.7419 114.013 81.7419 114.85C81.7419 115.686 82.4201 116.365 83.2567 116.365Z" fill="white"/><path d="M80.6059 118.366C81.084 118.366 81.4715 117.979 81.4715 117.501C81.4715 117.023 81.084 116.635 80.6059 116.635C80.1279 116.635 79.7404 117.023 79.7404 117.501C79.7404 117.979 80.1279 118.366 80.6059 118.366Z" fill="white"/><path d="M86.8272 95.7533C87.7534 95.7533 88.5042 95.0025 88.5042 94.0763C88.5042 93.1501 87.7534 92.3992 86.8272 92.3992C85.901 92.3992 85.1501 93.1501 85.1501 94.0763C85.1501 95.0025 85.901 95.7533 86.8272 95.7533Z" fill="white"/><path d="M79.8485 102.299C80.7747 102.299 81.5255 101.548 81.5255 100.622C81.5255 99.6959 80.7747 98.9451 79.8485 98.9451C78.9223 98.9451 78.1714 99.6959 78.1714 100.622C78.1714 101.548 78.9223 102.299 79.8485 102.299Z" fill="white"/><path d="M74.8715 107.925C75.7081 107.925 76.3862 107.247 76.3862 106.411C76.3862 105.574 75.7081 104.896 74.8715 104.896C74.0349 104.896 73.3568 105.574 73.3568 106.411C73.3568 107.247 74.0349 107.925 74.8715 107.925Z" fill="white"/><path d="M71.7339 110.414C72.3912 110.414 72.924 109.881 72.924 109.224C72.924 108.566 72.3912 108.034 71.7339 108.034C71.0766 108.034 70.5437 108.566 70.5437 109.224C70.5437 109.881 71.0766 110.414 71.7339 110.414Z" fill="white"/><path d="M64.9175 102.84C65.5748 102.84 66.1077 102.307 66.1077 101.65C66.1077 100.993 65.5748 100.46 64.9175 100.46C64.2602 100.46 63.7274 100.993 63.7274 101.65C63.7274 102.307 64.2602 102.84 64.9175 102.84Z" fill="white"/><path d="M67.2437 99.5943C68.0803 99.5943 68.7584 98.9161 68.7584 98.0795C68.7584 97.243 68.0803 96.5648 67.2437 96.5648C66.4071 96.5648 65.7289 97.243 65.7289 98.0795C65.7289 98.9161 66.4071 99.5943 67.2437 99.5943Z" fill="white"/><path d="M60.8601 90.8304C61.6967 90.8304 62.3749 90.1522 62.3749 89.3157C62.3749 88.4791 61.6967 87.8009 60.8601 87.8009C60.0236 87.8009 59.3454 88.4791 59.3454 89.3157C59.3454 90.1522 60.0236 90.8304 60.8601 90.8304Z" fill="white"/><path d="M71.7879 93.4812C72.7141 93.4812 73.465 92.7304 73.465 91.8042C73.465 90.878 72.7141 90.1271 71.7879 90.1271C70.8617 90.1271 70.1109 90.878 70.1109 91.8042C70.1109 92.7304 70.8617 93.4812 71.7879 93.4812Z" fill="white"/><path d="M64.7011 84.7714C65.6273 84.7714 66.3781 84.0206 66.3781 83.0944C66.3781 82.1682 65.6273 81.4174 64.7011 81.4174C63.7749 81.4174 63.024 82.1682 63.024 83.0944C63.024 84.0206 63.7749 84.7714 64.7011 84.7714Z" fill="white"/><path d="M72.0584 78.6043C72.9846 78.6043 73.7355 77.8534 73.7355 76.9272C73.7355 76.001 72.9846 75.2502 72.0584 75.2502C71.1322 75.2502 70.3814 76.001 70.3814 76.9272C70.3814 77.8534 71.1322 78.6043 72.0584 78.6043Z" fill="white"/><path d="M66.0536 70.6519C66.9798 70.6519 67.7306 69.901 67.7306 68.9748C67.7306 68.0486 66.9798 67.2978 66.0536 67.2978C65.1274 67.2978 64.3765 68.0486 64.3765 68.9748C64.3765 69.901 65.1274 70.6519 66.0536 70.6519Z" fill="white"/><path d="M58.9126 76.6026C59.8388 76.6026 60.5897 75.8518 60.5897 74.9256C60.5897 73.9994 59.8388 73.2486 58.9126 73.2486C57.9864 73.2486 57.2356 73.9994 57.2356 74.9256C57.2356 75.8518 57.9864 76.6026 58.9126 76.6026Z" fill="white"/><path d="M54.9094 82.8239C55.746 82.8239 56.4241 82.1457 56.4241 81.3092C56.4241 80.4726 55.746 79.7944 54.9094 79.7944C54.0728 79.7944 53.3947 80.4726 53.3947 81.3092C53.3947 82.1457 54.0728 82.8239 54.9094 82.8239Z" fill="white"/><path d="M54.0979 87.855C54.7552 87.855 55.2881 87.3222 55.2881 86.6649C55.2881 86.0076 54.7552 85.4747 54.0979 85.4747C53.4406 85.4747 52.9078 86.0076 52.9078 86.6649C52.9078 87.3222 53.4406 87.855 54.0979 87.855Z" fill="white"/><path d="M59.0208 95.2664C59.6781 95.2664 60.211 94.7336 60.211 94.0763C60.211 93.419 59.6781 92.8861 59.0208 92.8861C58.3635 92.8861 57.8307 93.419 57.8307 94.0763C57.8307 94.7336 58.3635 95.2664 59.0208 95.2664Z" fill="white"/><path d="M79.7403 74.3305C80.5769 74.3305 81.2551 73.6524 81.2551 72.8158C81.2551 71.9792 80.5769 71.3011 79.7403 71.3011C78.9037 71.3011 78.2256 71.9792 78.2256 72.8158C78.2256 73.6524 78.9037 74.3305 79.7403 74.3305Z" fill="white"/><path d="M74.3846 67.406C75.2212 67.406 75.8993 66.7278 75.8993 65.8913C75.8993 65.0547 75.2212 64.3765 74.3846 64.3765C73.548 64.3765 72.8699 65.0547 72.8699 65.8913C72.8699 66.7278 73.548 67.406 74.3846 67.406Z" fill="white"/><path d="M81.201 67.0273C81.679 67.0273 82.0665 66.6398 82.0665 66.1617C82.0665 65.6837 81.679 65.2962 81.201 65.2962C80.7229 65.2962 80.3354 65.6837 80.3354 66.1617C80.3354 66.6398 80.7229 67.0273 81.201 67.0273Z" fill="white"/><path d="M77.3059 60.9683C77.784 60.9683 78.1715 60.5808 78.1715 60.1028C78.1715 59.6247 77.784 59.2372 77.3059 59.2372C76.8279 59.2372 76.4404 59.6247 76.4404 60.1028C76.4404 60.5808 76.8279 60.9683 77.3059 60.9683Z" fill="white"/><path d="M69.8404 60.6979C70.677 60.6979 71.3551 60.0197 71.3551 59.1831C71.3551 58.3466 70.677 57.6684 69.8404 57.6684C69.0039 57.6684 68.3257 58.3466 68.3257 59.1831C68.3257 60.0197 69.0039 60.6979 69.8404 60.6979Z" fill="white"/><path d="M61.6716 63.1864C62.5978 63.1864 63.3486 62.4355 63.3486 61.5093C63.3486 60.5831 62.5978 59.8323 61.6716 59.8323C60.7454 59.8323 59.9946 60.5831 59.9946 61.5093C59.9946 62.4355 60.7454 63.1864 61.6716 63.1864Z" fill="white"/><path d="M54.3143 68.7584C55.2405 68.7584 55.9913 68.0076 55.9913 67.0814C55.9913 66.1552 55.2405 65.4044 54.3143 65.4044C53.3881 65.4044 52.6373 66.1552 52.6373 67.0814C52.6373 68.0076 53.3881 68.7584 54.3143 68.7584Z" fill="white"/><path d="M50.9061 75.5748C51.7427 75.5748 52.4208 74.8966 52.4208 74.0601C52.4208 73.2235 51.7427 72.5453 50.9061 72.5453C50.0695 72.5453 49.3914 73.2235 49.3914 74.0601C49.3914 74.8966 50.0695 75.5748 50.9061 75.5748Z" fill="white"/><path d="M47.2275 74.601C47.8848 74.601 48.4176 74.0682 48.4176 73.4109C48.4176 72.7536 47.8848 72.2207 47.2275 72.2207C46.5701 72.2207 46.0373 72.7536 46.0373 73.4109C46.0373 74.0682 46.5701 74.601 47.2275 74.601Z" fill="white"/><path d="M45.7127 69.1371C46.37 69.1371 46.9029 68.6043 46.9029 67.947C46.9029 67.2897 46.37 66.7568 45.7127 66.7568C45.0554 66.7568 44.5226 67.2897 44.5226 67.947C44.5226 68.6043 45.0554 69.1371 45.7127 69.1371Z" fill="white"/><path d="M45.9832 62.2667C46.4613 62.2667 46.8488 61.8792 46.8488 61.4011C46.8488 60.9231 46.4613 60.5356 45.9832 60.5356C45.5052 60.5356 45.1177 60.9231 45.1177 61.4011C45.1177 61.8792 45.5052 62.2667 45.9832 62.2667Z" fill="white"/><path d="M45.6587 57.5602C46.1367 57.5602 46.5242 57.1727 46.5242 56.6946C46.5242 56.2166 46.1367 55.8291 45.6587 55.8291C45.1806 55.8291 44.7931 56.2166 44.7931 56.6946C44.7931 57.1727 45.1806 57.5602 45.6587 57.5602Z" fill="white"/><path d="M46.0914 53.8815C46.5694 53.8815 46.957 53.494 46.957 53.016C46.957 52.5379 46.5694 52.1504 46.0914 52.1504C45.6134 52.1504 45.2258 52.5379 45.2258 53.016C45.2258 53.494 45.6134 53.8815 46.0914 53.8815Z" fill="white"/><path d="M51.1225 61.7257C52.0487 61.7257 52.7996 60.9749 52.7996 60.0487C52.7996 59.1225 52.0487 58.3717 51.1225 58.3717C50.1963 58.3717 49.4455 59.1225 49.4455 60.0487C49.4455 60.9749 50.1963 61.7257 51.1225 61.7257Z" fill="white"/><path d="M49.1209 55.9914C49.9575 55.9914 50.6356 55.3132 50.6356 54.4766C50.6356 53.64 49.9575 52.9619 49.1209 52.9619C48.2843 52.9619 47.6061 53.64 47.6061 54.4766C47.6061 55.3132 48.2843 55.9914 49.1209 55.9914Z" fill="white"/><path d="M55.8832 51.2307C56.8094 51.2307 57.5602 50.4799 57.5602 49.5537C57.5602 48.6275 56.8094 47.8767 55.8832 47.8767C54.957 47.8767 54.2061 48.6275 54.2061 49.5537C54.2061 50.4799 54.957 51.2307 55.8832 51.2307Z" fill="white"/><path d="M63.565 45.6587C64.312 45.6587 64.9175 45.0531 64.9175 44.3062C64.9175 43.5593 64.312 42.9538 63.565 42.9538C62.8181 42.9538 62.2126 43.5593 62.2126 44.3062C62.2126 45.0531 62.8181 45.6587 63.565 45.6587Z" fill="white"/><path d="M71.247 48.1471C71.725 48.1471 72.1125 47.7596 72.1125 47.2816C72.1125 46.8035 71.725 46.416 71.247 46.416C70.7689 46.416 70.3814 46.8035 70.3814 47.2816C70.3814 47.7596 70.7689 48.1471 71.247 48.1471Z" fill="white"/><path d="M75.7912 51.5012C76.2692 51.5012 76.6567 51.1137 76.6567 50.6356C76.6567 50.1576 76.2692 49.7701 75.7912 49.7701C75.3131 49.7701 74.9256 50.1576 74.9256 50.6356C74.9256 51.1137 75.3131 51.5012 75.7912 51.5012Z" fill="white"/><path d="M76.0075 54.0979C76.4856 54.0979 76.8731 53.7104 76.8731 53.2324C76.8731 52.7543 76.4856 52.3668 76.0075 52.3668C75.5295 52.3668 75.142 52.7543 75.142 53.2324C75.142 53.7104 75.5295 54.0979 76.0075 54.0979Z" fill="white"/><path d="M77.1436 57.1274C77.6216 57.1274 78.0092 56.7399 78.0092 56.2618C78.0092 55.7838 77.6216 55.3963 77.1436 55.3963C76.6655 55.3963 76.278 55.7838 76.278 56.2618C76.278 56.7399 76.6655 57.1274 77.1436 57.1274Z" fill="white"/><path d="M79.037 61.2929C79.5151 61.2929 79.9026 60.9054 79.9026 60.4274C79.9026 59.9493 79.5151 59.5618 79.037 59.5618C78.559 59.5618 78.1714 59.9493 78.1714 60.4274C78.1714 60.9054 78.559 61.2929 79.037 61.2929Z" fill="white"/><path d="M76.1699 49.9865C76.6479 49.9865 77.0355 49.5989 77.0355 49.1209C77.0355 48.6429 76.6479 48.2553 76.1699 48.2553C75.6919 48.2553 75.3043 48.6429 75.3043 49.1209C75.3043 49.5989 75.6919 49.9865 76.1699 49.9865Z" fill="white"/><path d="M77.0354 48.634C77.5135 48.634 77.901 48.2465 77.901 47.7685C77.901 47.2904 77.5135 46.9029 77.0354 46.9029C76.5574 46.9029 76.1699 47.2904 76.1699 47.7685C76.1699 48.2465 76.5574 48.634 77.0354 48.634Z" fill="white"/><path d="M72.5453 42.4128C73.0234 42.4128 73.4109 42.0252 73.4109 41.5472C73.4109 41.0692 73.0234 40.6816 72.5453 40.6816C72.0673 40.6816 71.6797 41.0692 71.6797 41.5472C71.6797 42.0252 72.0673 42.4128 72.5453 42.4128Z" fill="white"/><path d="M74.547 41.8718C75.025 41.8718 75.4125 41.4843 75.4125 41.0062C75.4125 40.5282 75.025 40.1407 74.547 40.1407C74.0689 40.1407 73.6814 40.5282 73.6814 41.0062C73.6814 41.4843 74.0689 41.8718 74.547 41.8718Z" fill="white"/><path d="M71.5174 38.5718C71.9955 38.5718 72.383 38.1843 72.383 37.7063C72.383 37.2282 71.9955 36.8407 71.5174 36.8407C71.0394 36.8407 70.6519 37.2282 70.6519 37.7063C70.6519 38.1843 71.0394 38.5718 71.5174 38.5718Z" fill="white"/><path d="M75.0338 39.4915C75.5119 39.4915 75.8994 39.104 75.8994 38.6259C75.8994 38.1479 75.5119 37.7603 75.0338 37.7603C74.5558 37.7603 74.1683 38.1479 74.1683 38.6259C74.1683 39.104 74.5558 39.4915 75.0338 39.4915Z" fill="white"/><path d="M77.0354 42.0882C77.5135 42.0882 77.901 41.7007 77.901 41.2226C77.901 40.7446 77.5135 40.3571 77.0354 40.3571C76.5574 40.3571 76.1699 40.7446 76.1699 41.2226C76.1699 41.7007 76.5574 42.0882 77.0354 42.0882Z" fill="white"/><path d="M79.9568 42.8997C80.4348 42.8997 80.8223 42.5121 80.8223 42.0341C80.8223 41.556 80.4348 41.1685 79.9568 41.1685C79.4787 41.1685 79.0912 41.556 79.0912 42.0341C79.0912 42.5121 79.4787 42.8997 79.9568 42.8997Z" fill="white"/><path d="M83.3108 44.3062C83.7888 44.3062 84.1763 43.9187 84.1763 43.4406C84.1763 42.9626 83.7888 42.5751 83.3108 42.5751C82.8327 42.5751 82.4452 42.9626 82.4452 43.4406C82.4452 43.9187 82.8327 44.3062 83.3108 44.3062Z" fill="white"/><path d="M87.1517 46.0914C87.6297 46.0914 88.0173 45.7039 88.0173 45.2259C88.0173 44.7478 87.6297 44.3603 87.1517 44.3603C86.6737 44.3603 86.2861 44.7478 86.2861 45.2259C86.2861 45.7039 86.6737 46.0914 87.1517 46.0914Z" fill="white"/><path d="M82.7698 43.3324C83.2478 43.3324 83.6354 42.9449 83.6354 42.4669C83.6354 41.9888 83.2478 41.6013 82.7698 41.6013C82.2918 41.6013 81.9042 41.9888 81.9042 42.4669C81.9042 42.9449 82.2918 43.3324 82.7698 43.3324Z" fill="white"/><path d="M78.7125 41.2226C79.1905 41.2226 79.5781 40.8351 79.5781 40.3571C79.5781 39.879 79.1905 39.4915 78.7125 39.4915C78.2345 39.4915 77.8469 39.879 77.8469 40.3571C77.8469 40.8351 78.2345 41.2226 78.7125 41.2226Z" fill="white"/><path d="M78.2797 48.1471C78.7577 48.1471 79.1453 47.7596 79.1453 47.2816C79.1453 46.8035 78.7577 46.416 78.2797 46.416C77.8016 46.416 77.4141 46.8035 77.4141 47.2816C77.4141 47.7596 77.8016 48.1471 78.2797 48.1471Z" fill="white"/><path d="M80.2272 48.1471C80.7052 48.1471 81.0928 47.7596 81.0928 47.2816C81.0928 46.8035 80.7052 46.416 80.2272 46.416C79.7492 46.416 79.3616 46.8035 79.3616 47.2816C79.3616 47.7596 79.7492 48.1471 80.2272 48.1471Z" fill="white"/><path d="M83.0944 48.7422C83.5724 48.7422 83.9599 48.3547 83.9599 47.8767C83.9599 47.3986 83.5724 47.0111 83.0944 47.0111C82.6163 47.0111 82.2288 47.3986 82.2288 47.8767C82.2288 48.3547 82.6163 48.7422 83.0944 48.7422Z" fill="white"/><path d="M85.8534 49.7701C86.3314 49.7701 86.719 49.3826 86.719 48.9045C86.719 48.4265 86.3314 48.039 85.8534 48.039C85.3754 48.039 84.9879 48.4265 84.9879 48.9045C84.9879 49.3826 85.3754 49.7701 85.8534 49.7701Z" fill="white"/><path d="M88.937 51.2307C89.415 51.2307 89.8025 50.8432 89.8025 50.3652C89.8025 49.8871 89.415 49.4996 88.937 49.4996C88.4589 49.4996 88.0714 49.8871 88.0714 50.3652C88.0714 50.8432 88.4589 51.2307 88.937 51.2307Z" fill="white"/><path d="M90.9928 48.3635C91.4708 48.3635 91.8583 47.976 91.8583 47.498C91.8583 47.0199 91.4708 46.6324 90.9928 46.6324C90.5147 46.6324 90.1272 47.0199 90.1272 47.498C90.1272 47.976 90.5147 48.3635 90.9928 48.3635Z" fill="white"/><path d="M94.8337 51.0143C95.3117 51.0143 95.6993 50.6268 95.6993 50.1488C95.6993 49.6707 95.3117 49.2832 94.8337 49.2832C94.3557 49.2832 93.9681 49.6707 93.9681 50.1488C93.9681 50.6268 94.3557 51.0143 94.8337 51.0143Z" fill="white"/><path d="M99.1074 54.0979C99.5854 54.0979 99.973 53.7104 99.973 53.2324C99.973 52.7543 99.5854 52.3668 99.1074 52.3668C98.6293 52.3668 98.2418 52.7543 98.2418 53.2324C98.2418 53.7104 98.6293 54.0979 99.1074 54.0979Z" fill="white"/><path d="M103.273 57.3438C103.751 57.3438 104.138 56.9563 104.138 56.4782C104.138 56.0002 103.751 55.6127 103.273 55.6127C102.795 55.6127 102.407 56.0002 102.407 56.4782C102.407 56.9563 102.795 57.3438 103.273 57.3438Z" fill="white"/><path d="M107.601 60.6979C108.079 60.6979 108.466 60.3103 108.466 59.8323C108.466 59.3543 108.079 58.9667 107.601 58.9667C107.123 58.9667 106.735 59.3543 106.735 59.8323C106.735 60.3103 107.123 60.6979 107.601 60.6979Z" fill="white"/><path d="M111.766 64.3765C112.244 64.3765 112.632 63.989 112.632 63.511C112.632 63.0329 112.244 62.6454 111.766 62.6454C111.288 62.6454 110.901 63.0329 110.901 63.511C110.901 63.989 111.288 64.3765 111.766 64.3765Z" fill="white"/><path d="M116.04 68.1634C116.518 68.1634 116.906 67.7759 116.906 67.2978C116.906 66.8198 116.518 66.4323 116.04 66.4323C115.562 66.4323 115.174 66.8198 115.174 67.2978C115.174 67.7759 115.562 68.1634 116.04 68.1634Z" fill="white"/><path d="M119.881 71.7879C120.359 71.7879 120.747 71.4004 120.747 70.9224C120.747 70.4443 120.359 70.0568 119.881 70.0568C119.403 70.0568 119.015 70.4443 119.015 70.9224C119.015 71.4004 119.403 71.7879 119.881 71.7879Z" fill="white"/><path d="M88.396 57.452C88.874 57.452 89.2615 57.0645 89.2615 56.5864C89.2615 56.1084 88.874 55.7209 88.396 55.7209C87.9179 55.7209 87.5304 56.1084 87.5304 56.5864C87.5304 57.0645 87.9179 57.452 88.396 57.452Z" fill="white"/><path d="M92.1828 53.1241C92.6609 53.1241 93.0484 52.7366 93.0484 52.2586C93.0484 51.7805 92.6609 51.393 92.1828 51.393C91.7048 51.393 91.3173 51.7805 91.3173 52.2586C91.3173 52.7366 91.7048 53.1241 92.1828 53.1241Z" fill="white"/><path d="M79.037 55.234C79.5151 55.234 79.9026 54.8464 79.9026 54.3684C79.9026 53.8904 79.5151 53.5028 79.037 53.5028C78.559 53.5028 78.1714 53.8904 78.1714 54.3684C78.1714 54.8464 78.559 55.234 79.037 55.234Z" fill="white"/><path d="M80.7141 55.1799C81.1921 55.1799 81.5796 54.7923 81.5796 54.3143C81.5796 53.8363 81.1921 53.4487 80.7141 53.4487C80.236 53.4487 79.8485 53.8363 79.8485 54.3143C79.8485 54.7923 80.236 55.1799 80.7141 55.1799Z" fill="white"/><path d="M82.9321 55.5586C83.4101 55.5586 83.7977 55.171 83.7977 54.693C83.7977 54.2149 83.4101 53.8274 82.9321 53.8274C82.4541 53.8274 82.0665 54.2149 82.0665 54.693C82.0665 55.171 82.4541 55.5586 82.9321 55.5586Z" fill="white"/><path d="M85.3665 56.37C85.8446 56.37 86.2321 55.9825 86.2321 55.5045C86.2321 55.0264 85.8446 54.6389 85.3665 54.6389C84.8885 54.6389 84.501 55.0264 84.501 55.5045C84.501 55.9825 84.8885 56.37 85.3665 56.37Z" fill="white"/><path d="M91.3714 58.9667C91.8494 58.9667 92.237 58.5792 92.237 58.1012C92.237 57.6231 91.8494 57.2356 91.3714 57.2356C90.8934 57.2356 90.5059 57.6231 90.5059 58.1012C90.5059 58.5792 90.8934 58.9667 91.3714 58.9667Z" fill="white"/><path d="M95.9156 55.6668C96.3937 55.6668 96.7812 55.2792 96.7812 54.8012C96.7812 54.3232 96.3937 53.9356 95.9156 53.9356C95.4376 53.9356 95.05 54.3232 95.05 54.8012C95.05 55.2792 95.4376 55.6668 95.9156 55.6668Z" fill="white"/><path d="M77.7387 55.775C78.2168 55.775 78.6043 55.3874 78.6043 54.9094C78.6043 54.4314 78.2168 54.0438 77.7387 54.0438C77.2607 54.0438 76.8732 54.4314 76.8732 54.9094C76.8732 55.3874 77.2607 55.775 77.7387 55.775Z" fill="white"/><path d="M94.4549 61.0765C94.933 61.0765 95.3205 60.689 95.3205 60.211C95.3205 59.7329 94.933 59.3454 94.4549 59.3454C93.9769 59.3454 93.5894 59.7329 93.5894 60.211C93.5894 60.689 93.9769 61.0765 94.4549 61.0765Z" fill="white"/><path d="M99.486 58.0471C99.9641 58.0471 100.352 57.6595 100.352 57.1815C100.352 56.7035 99.9641 56.3159 99.486 56.3159C99.008 56.3159 98.6205 56.7035 98.6205 57.1815C98.6205 57.6595 99.008 58.0471 99.486 58.0471Z" fill="white"/><path d="M97.8631 63.2946C98.3412 63.2946 98.7287 62.907 98.7287 62.429C98.7287 61.951 98.3412 61.5634 97.8631 61.5634C97.3851 61.5634 96.9976 61.951 96.9976 62.429C96.9976 62.907 97.3851 63.2946 97.8631 63.2946Z" fill="white"/><path d="M103.381 60.752C103.859 60.752 104.247 60.3644 104.247 59.8864C104.247 59.4084 103.859 59.0208 103.381 59.0208C102.903 59.0208 102.516 59.4084 102.516 59.8864C102.516 60.3644 102.903 60.752 103.381 60.752Z" fill="white"/><path d="M101.325 65.7831C101.803 65.7831 102.191 65.3955 102.191 64.9175C102.191 64.4395 101.803 64.0519 101.325 64.0519C100.847 64.0519 100.46 64.4395 100.46 64.9175C100.46 65.3955 100.847 65.7831 101.325 65.7831Z" fill="white"/><path d="M107.114 63.9437C107.592 63.9437 107.979 63.5562 107.979 63.0782C107.979 62.6001 107.592 62.2126 107.114 62.2126C106.636 62.2126 106.248 62.6001 106.248 63.0782C106.248 63.5562 106.636 63.9437 107.114 63.9437Z" fill="white"/><path d="M104.95 68.488C105.428 68.488 105.815 68.1004 105.815 67.6224C105.815 67.1444 105.428 66.7568 104.95 66.7568C104.472 66.7568 104.084 67.1444 104.084 67.6224C104.084 68.1004 104.472 68.488 104.95 68.488Z" fill="white"/><path d="M110.955 67.1355C111.433 67.1355 111.82 66.748 111.82 66.27C111.82 65.7919 111.433 65.4044 110.955 65.4044C110.477 65.4044 110.089 65.7919 110.089 66.27C110.089 66.748 110.477 67.1355 110.955 67.1355Z" fill="white"/><path d="M108.358 71.4092C108.836 71.4092 109.224 71.0217 109.224 70.5437C109.224 70.0656 108.836 69.6781 108.358 69.6781C107.88 69.6781 107.493 70.0656 107.493 70.5437C107.493 71.0217 107.88 71.4092 108.358 71.4092Z" fill="white"/><path d="M114.796 70.7601C115.274 70.7601 115.661 70.3725 115.661 69.8945C115.661 69.4165 115.274 69.0289 114.796 69.0289C114.318 69.0289 113.93 69.4165 113.93 69.8945C113.93 70.3725 114.318 70.7601 114.796 70.7601Z" fill="white"/><path d="M111.929 74.6551C112.407 74.6551 112.794 74.2676 112.794 73.7896C112.794 73.3115 112.407 72.924 111.929 72.924C111.451 72.924 111.063 73.3115 111.063 73.7896C111.063 74.2676 111.451 74.6551 111.929 74.6551Z" fill="white"/><path d="M118.096 73.5732C118.574 73.5732 118.961 73.1856 118.961 72.7076C118.961 72.2296 118.574 71.842 118.096 71.842C117.618 71.842 117.23 72.2296 117.23 72.7076C117.23 73.1856 117.618 73.5732 118.096 73.5732Z" fill="white"/><path d="M114.688 77.0354C115.166 77.0354 115.553 76.6479 115.553 76.1699C115.553 75.6918 115.166 75.3043 114.688 75.3043C114.21 75.3043 113.822 75.6918 113.822 76.1699C113.822 76.6479 114.21 77.0354 114.688 77.0354Z" fill="white"/><path d="M97.9172 70.3814C98.3952 70.3814 98.7828 69.9939 98.7828 69.5158C98.7828 69.0378 98.3952 68.6503 97.9172 68.6503C97.4392 68.6503 97.0516 69.0378 97.0516 69.5158C97.0516 69.9939 97.4392 70.3814 97.9172 70.3814Z" fill="white"/><path d="M94.1303 74.1683C94.6084 74.1683 94.9959 73.7807 94.9959 73.3027C94.9959 72.8246 94.6084 72.4371 94.1303 72.4371C93.6523 72.4371 93.2648 72.8246 93.2648 73.3027C93.2648 73.7807 93.6523 74.1683 94.1303 74.1683Z" fill="white"/><path d="M94.7254 68.0552C95.2035 68.0552 95.591 67.6677 95.591 67.1896C95.591 66.7116 95.2035 66.3241 94.7254 66.3241C94.2474 66.3241 93.8599 66.7116 93.8599 67.1896C93.8599 67.6677 94.2474 68.0552 94.7254 68.0552Z" fill="white"/><path d="M94.7254 68.0552C95.2035 68.0552 95.591 67.6677 95.591 67.1896C95.591 66.7116 95.2035 66.3241 94.7254 66.3241C94.2474 66.3241 93.8599 66.7116 93.8599 67.1896C93.8599 67.6677 94.2474 68.0552 94.7254 68.0552Z" fill="white"/><path d="M90.2353 71.3011C90.7134 71.3011 91.1009 70.9135 91.1009 70.4355C91.1009 69.9575 90.7134 69.5699 90.2353 69.5699C89.7573 69.5699 89.3698 69.9575 89.3698 70.4355C89.3698 70.9135 89.7573 71.3011 90.2353 71.3011Z" fill="white"/><path d="M91.3714 66.2159C91.8494 66.2159 92.237 65.8283 92.237 65.3503C92.237 64.8722 91.8494 64.4847 91.3714 64.4847C90.8934 64.4847 90.5059 64.8722 90.5059 65.3503C90.5059 65.8283 90.8934 66.2159 91.3714 66.2159Z" fill="white"/><path d="M86.8272 69.5699C87.3052 69.5699 87.6927 69.1824 87.6927 68.7044C87.6927 68.2263 87.3052 67.8388 86.8272 67.8388C86.3491 67.8388 85.9616 68.2263 85.9616 68.7044C85.9616 69.1824 86.3491 69.5699 86.8272 69.5699Z" fill="white"/><path d="M88.0173 64.3765C88.4953 64.3765 88.8829 63.989 88.8829 63.511C88.8829 63.0329 88.4953 62.6454 88.0173 62.6454C87.5393 62.6454 87.1517 63.0329 87.1517 63.511C87.1517 63.989 87.5393 64.3765 88.0173 64.3765Z" fill="white"/><path d="M83.6353 67.947C84.1134 67.947 84.5009 67.5595 84.5009 67.0814C84.5009 66.6034 84.1134 66.2159 83.6353 66.2159C83.1573 66.2159 82.7698 66.6034 82.7698 67.0814C82.7698 67.5595 83.1573 67.947 83.6353 67.947Z" fill="white"/><path d="M85.1501 63.0782C85.6281 63.0782 86.0157 62.6906 86.0157 62.2126C86.0157 61.7346 85.6281 61.347 85.1501 61.347C84.6721 61.347 84.2845 61.7346 84.2845 62.2126C84.2845 62.6906 84.6721 63.0782 85.1501 63.0782Z" fill="white"/><path d="M82.3911 61.9962C82.8692 61.9962 83.2567 61.6087 83.2567 61.1307C83.2567 60.6526 82.8692 60.2651 82.3911 60.2651C81.9131 60.2651 81.5256 60.6526 81.5256 61.1307C81.5256 61.6087 81.9131 61.9962 82.3911 61.9962Z" fill="white"/><path d="M79.7944 61.2929C80.2724 61.2929 80.66 60.9054 80.66 60.4274C80.66 59.9493 80.2724 59.5618 79.7944 59.5618C79.3164 59.5618 78.9288 59.9493 78.9288 60.4274C78.9288 60.9054 79.3164 61.2929 79.7944 61.2929Z" fill="white"/><path d="M101.271 72.8158C101.749 72.8158 102.137 72.4283 102.137 71.9502C102.137 71.4722 101.749 71.0847 101.271 71.0847C100.793 71.0847 100.406 71.4722 100.406 71.9502C100.406 72.4283 100.793 72.8158 101.271 72.8158Z" fill="white"/><path d="M97.4845 76.6027C97.9625 76.6027 98.35 76.2151 98.35 75.7371C98.35 75.2591 97.9625 74.8715 97.4845 74.8715C97.0064 74.8715 96.6189 75.2591 96.6189 75.7371C96.6189 76.2151 97.0064 76.6027 97.4845 76.6027Z" fill="white"/><path d="M104.842 75.8453C105.32 75.8453 105.707 75.4577 105.707 74.9797C105.707 74.5017 105.32 74.1142 104.842 74.1142C104.364 74.1142 103.976 74.5017 103.976 74.9797C103.976 75.4577 104.364 75.8453 104.842 75.8453Z" fill="white"/><path d="M101.217 79.4698C101.695 79.4698 102.083 79.0823 102.083 78.6043C102.083 78.1262 101.695 77.7387 101.217 77.7387C100.739 77.7387 100.352 78.1262 100.352 78.6043C100.352 79.0823 100.739 79.4698 101.217 79.4698Z" fill="white"/><path d="M108.034 78.7125C108.512 78.7125 108.899 78.3249 108.899 77.8469C108.899 77.3689 108.512 76.9813 108.034 76.9813C107.555 76.9813 107.168 77.3689 107.168 77.8469C107.168 78.3249 107.555 78.7125 108.034 78.7125Z" fill="white"/><path d="M104.409 82.3911C104.887 82.3911 105.275 82.0036 105.275 81.5256C105.275 81.0475 104.887 80.66 104.409 80.66C103.931 80.66 103.543 81.0475 103.543 81.5256C103.543 82.0036 103.931 82.3911 104.409 82.3911Z" fill="white"/><path d="M110.684 81.0387C111.162 81.0387 111.55 80.6512 111.55 80.1731C111.55 79.6951 111.162 79.3076 110.684 79.3076C110.206 79.3076 109.819 79.6951 109.819 80.1731C109.819 80.6512 110.206 81.0387 110.684 81.0387Z" fill="white"/><path d="M106.897 84.8255C107.375 84.8255 107.763 84.438 107.763 83.96C107.763 83.4819 107.375 83.0944 106.897 83.0944C106.419 83.0944 106.032 83.4819 106.032 83.96C106.032 84.438 106.419 84.8255 106.897 84.8255Z" fill="white"/><path d="M70.9765 45.4423C71.4545 45.4423 71.842 45.0547 71.842 44.5767C71.842 44.0986 71.4545 43.7111 70.9765 43.7111C70.4984 43.7111 70.1109 44.0986 70.1109 44.5767C70.1109 45.0547 70.4984 45.4423 70.9765 45.4423Z" fill="white"/><path d="M71.4634 43.2242C71.9414 43.2242 72.3289 42.8367 72.3289 42.3587C72.3289 41.8806 71.9414 41.4931 71.4634 41.4931C70.9853 41.4931 70.5978 41.8806 70.5978 42.3587C70.5978 42.8367 70.9853 43.2242 71.4634 43.2242Z" fill="white"/><path d="M63.4569 42.3046C64.0245 42.3046 64.4847 41.8444 64.4847 41.2767C64.4847 40.709 64.0245 40.2489 63.4569 40.2489C62.8892 40.2489 62.429 40.709 62.429 41.2767C62.429 41.8444 62.8892 42.3046 63.4569 42.3046Z" fill="white"/><path d="M64.3765 39.8161C64.8546 39.8161 65.2421 39.4285 65.2421 38.9505C65.2421 38.4725 64.8546 38.0849 64.3765 38.0849C63.8985 38.0849 63.511 38.4725 63.511 38.9505C63.511 39.4285 63.8985 39.8161 64.3765 39.8161Z" fill="white"/><path d="M66.0536 38.6259C66.5316 38.6259 66.9191 38.2384 66.9191 37.7604C66.9191 37.2823 66.5316 36.8948 66.0536 36.8948C65.5755 36.8948 65.188 37.2823 65.188 37.7604C65.188 38.2384 65.5755 38.6259 66.0536 38.6259Z" fill="white"/><path d="M68.5421 38.2472C69.0201 38.2472 69.4077 37.8597 69.4077 37.3817C69.4077 36.9036 69.0201 36.5161 68.5421 36.5161C68.064 36.5161 67.6765 36.9036 67.6765 37.3817C67.6765 37.8597 68.064 38.2472 68.5421 38.2472Z" fill="white"/><path d="M55.1258 46.5242C55.8727 46.5242 56.4782 45.9187 56.4782 45.1718C56.4782 44.4248 55.8727 43.8193 55.1258 43.8193C54.3788 43.8193 53.7733 44.4248 53.7733 45.1718C53.7733 45.9187 54.3788 46.5242 55.1258 46.5242Z" fill="white"/><path d="M49.0127 47.2816C49.5804 47.2816 50.0406 46.8214 50.0406 46.2537C50.0406 45.6861 49.5804 45.2259 49.0127 45.2259C48.4451 45.2259 47.9849 45.6861 47.9849 46.2537C47.9849 46.8214 48.4451 47.2816 49.0127 47.2816Z" fill="white"/><path d="M50.852 44.4144C51.3301 44.4144 51.7176 44.0269 51.7176 43.5488C51.7176 43.0708 51.3301 42.6833 50.852 42.6833C50.374 42.6833 49.9865 43.0708 49.9865 43.5488C49.9865 44.0269 50.374 44.4144 50.852 44.4144Z" fill="white"/><path d="M48.4176 50.6357C48.8957 50.6357 49.2832 50.2481 49.2832 49.7701C49.2832 49.2921 48.8957 48.9045 48.4176 48.9045C47.9396 48.9045 47.5521 49.2921 47.5521 49.7701C47.5521 50.2481 47.9396 50.6357 48.4176 50.6357Z" fill="white"/><path d="M55.5586 42.7915C56.1262 42.7915 56.5864 42.3313 56.5864 41.7636C56.5864 41.1959 56.1262 40.7357 55.5586 40.7357C54.9909 40.7357 54.5307 41.1959 54.5307 41.7636C54.5307 42.3313 54.9909 42.7915 55.5586 42.7915Z" fill="white"/><path d="M56.7487 40.1948C57.2267 40.1948 57.6143 39.8072 57.6143 39.3292C57.6143 38.8511 57.2267 38.4636 56.7487 38.4636C56.2706 38.4636 55.8831 38.8511 55.8831 39.3292C55.8831 39.8072 56.2706 40.1948 56.7487 40.1948Z" fill="white"/><path d="M58.9668 38.8423C59.4448 38.8423 59.8323 38.4548 59.8323 37.9767C59.8323 37.4987 59.4448 37.1112 58.9668 37.1112C58.4887 37.1112 58.1012 37.4987 58.1012 37.9767C58.1012 38.4548 58.4887 38.8423 58.9668 38.8423Z" fill="white"/><path d="M61.7798 38.4636C62.2579 38.4636 62.6454 38.0761 62.6454 37.5981C62.6454 37.12 62.2579 36.7325 61.7798 36.7325C61.3018 36.7325 60.9142 37.12 60.9142 37.5981C60.9142 38.0761 61.3018 38.4636 61.7798 38.4636Z" fill="white"/><path d="M64.5388 49.8783C65.3754 49.8783 66.0535 49.2001 66.0535 48.3635C66.0535 47.527 65.3754 46.8488 64.5388 46.8488C63.7022 46.8488 63.024 47.527 63.024 48.3635C63.024 49.2001 63.7022 49.8783 64.5388 49.8783Z" fill="white"/><path d="M72.2207 51.8258C72.6988 51.8258 73.0863 51.4383 73.0863 50.9602C73.0863 50.4822 72.6988 50.0947 72.2207 50.0947C71.7427 50.0947 71.3552 50.4822 71.3552 50.9602C71.3552 51.4383 71.7427 51.8258 72.2207 51.8258Z" fill="white"/><path d="M58.2635 56.5864C59.1897 56.5864 59.9405 55.8356 59.9405 54.9094C59.9405 53.9832 59.1897 53.2324 58.2635 53.2324C57.3373 53.2324 56.5864 53.9832 56.5864 54.9094C56.5864 55.8356 57.3373 56.5864 58.2635 56.5864Z" fill="white"/><path d="M66.9732 54.693C67.8098 54.693 68.488 54.0148 68.488 53.1783C68.488 52.3417 67.8098 51.6635 66.9732 51.6635C66.1367 51.6635 65.4585 52.3417 65.4585 53.1783C65.4585 54.0148 66.1367 54.693 66.9732 54.693Z" fill="white"/><path d="M74.3846 55.9914C74.8627 55.9914 75.2502 55.6038 75.2502 55.1258C75.2502 54.6478 74.8627 54.2602 74.3846 54.2602C73.9066 54.2602 73.519 54.6478 73.519 55.1258C73.519 55.6038 73.9066 55.9914 74.3846 55.9914Z" fill="white"/><path d="M50.1488 80.8223C50.8061 80.8223 51.3389 80.2894 51.3389 79.6321C51.3389 78.9748 50.8061 78.442 50.1488 78.442C49.4915 78.442 48.9586 78.9748 48.9586 79.6321C48.9586 80.2894 49.4915 80.8223 50.1488 80.8223Z" fill="white"/><path d="M86.178 73.1945C86.656 73.1945 87.0436 72.807 87.0436 72.3289C87.0436 71.8509 86.656 71.4634 86.178 71.4634C85.7 71.4634 85.3124 71.8509 85.3124 72.3289C85.3124 72.807 85.7 73.1945 86.178 73.1945Z" fill="white"/><path d="M78.9829 87.2058C79.9091 87.2058 80.66 86.455 80.66 85.5288C80.66 84.6026 79.9091 83.8518 78.9829 83.8518C78.0567 83.8518 77.3059 84.6026 77.3059 85.5288C77.3059 86.455 78.0567 87.2058 78.9829 87.2058Z" fill="white"/><path d="M86.4485 82.2829C87.285 82.2829 87.9632 81.6048 87.9632 80.7682C87.9632 79.9316 87.285 79.2535 86.4485 79.2535C85.6119 79.2535 84.9337 79.9316 84.9337 80.7682C84.9337 81.6048 85.6119 82.2829 86.4485 82.2829Z" fill="white"/><path d="M91.9664 79.7944C92.4444 79.7944 92.832 79.4069 92.832 78.9289C92.832 78.4508 92.4444 78.0633 91.9664 78.0633C91.4884 78.0633 91.1008 78.4508 91.1008 78.9289C91.1008 79.4069 91.4884 79.7944 91.9664 79.7944Z" fill="white"/><path d="M93.6435 90.0189C94.4801 90.0189 95.1583 89.3408 95.1583 88.5042C95.1583 87.6676 94.4801 86.9895 93.6435 86.9895C92.807 86.9895 92.1288 87.6676 92.1288 88.5042C92.1288 89.3408 92.807 90.0189 93.6435 90.0189Z" fill="white"/><path d="M97.9713 86.2321C98.4493 86.2321 98.8368 85.8446 98.8368 85.3665C98.8368 84.8885 98.4493 84.501 97.9713 84.501C97.4932 84.501 97.1057 84.8885 97.1057 85.3665C97.1057 85.8446 97.4932 86.2321 97.9713 86.2321Z" fill="white"/><path d="M55.2881 143.359C54.7471 142.819 54.7471 141.953 55.2881 141.466L78.2256 118.529L80.119 120.422L57.1815 143.359C56.6405 143.846 55.829 143.846 55.2881 143.359Z" fill="white"/><path d="M107.601 92.5615L105.707 90.6681L141.033 55.3422C141.574 54.8012 142.44 54.8012 142.927 55.3422C143.468 55.8831 143.468 56.7487 142.927 57.2356L107.601 92.5615Z" fill="white"/></g><defs><clipPath id="clip0_603_81"><rect width="200" height="200" fill="white"/></clipPath></defs></svg>