<svg xmlns="http://www.w3.org/2000/svg" viewBox="0 0 23.69 23.69"><defs><style>.cls-1{fill:#fff;}</style></defs><g id="Capa_2" data-name="Capa 2"><g id="Fonts"><circle class="cls-1" cx="11.85" cy="11.85" r="11.85"/><circle cx="12.5" cy="11" r="0.1"/><circle cx="12.06" cy="11.45" r="0.1"/><circle cx="11.32" cy="12.18" r="0.2"/><circle cx="14.65" cy="8.85" r="0.1"/><circle cx="14.43" cy="9.06" r="0.1"/><circle cx="14.03" cy="9.46" r="0.1"/><circle cx="13.56" cy="9.95" r="0.1"/><circle cx="13.11" cy="10.4" r="0.1"/><circle cx="10.52" cy="12.98" r="0.1"/><circle cx="9.88" cy="13.62" r="0.1"/><circle cx="9.57" cy="13.94" r="0.1"/><circle cx="12.48" cy="10.99" r="0.1"/><circle cx="12.04" cy="11.43" r="0.18"/><circle cx="11.31" cy="12.17" r="0.2"/><circle cx="12.27" cy="13.13" r="0.2"/><circle cx="11.5" cy="13.96" r="0.2"/><circle cx="10.81" cy="14.55" r="0.18"/><circle cx="10.48" cy="14.92" r="0.14"/><circle cx="11.37" cy="15.73" r="0.14"/><circle cx="11.79" cy="15.45" r="0.18"/><circle cx="12.83" cy="16.2" r="0.18"/><circle cx="12.54" cy="14.91" r="0.2"/><circle cx="13.57" cy="15.75" r="0.2"/><circle cx="14.3" cy="14.88" r="0.2"/><circle cx="15.25" cy="15.59" r="0.2"/><circle cx="14.54" cy="16.44" r="0.2"/><circle cx="13.79" cy="16.91" r="0.18"/><circle cx="13.15" cy="17.01" r="0.14"/><circle cx="12.27" cy="16.43" r="0.14"/><circle cx="14.79" cy="13.97" r="0.18"/><circle cx="15.61" cy="14.6" r="0.18"/><circle cx="15.58" cy="13.8" r="0.1"/><circle cx="16.29" cy="14.26" r="0.1"/><circle cx="16.41" cy="15.14" r="0.18"/><circle cx="16.13" cy="16.11" r="0.2"/><circle cx="15.47" cy="16.98" r="0.2"/><circle cx="14.64" cy="17.38" r="0.18"/><circle cx="14.72" cy="17.82" r="0.14"/><circle cx="15.36" cy="18" r="0.14"/><circle cx="16.14" cy="17.97" r="0.1"/><circle cx="16.7" cy="18" r="0.1"/><circle cx="17.14" cy="17.96" r="0.1"/><circle cx="16.3" cy="17.36" r="0.2"/><circle cx="16.96" cy="17.6" r="0.18"/><circle cx="17.54" cy="16.79" r="0.2"/><circle cx="18.17" cy="15.89" r="0.16"/><circle cx="17.82" cy="14.98" r="0.1"/><circle cx="17.42" cy="14.43" r="0.1"/><circle cx="17.11" cy="14.41" r="0.1"/><circle cx="16.75" cy="14.27" r="0.1"/><circle cx="16.26" cy="14.06" r="0.1"/><circle cx="17.6" cy="14.39" r="0.1"/><circle cx="17.76" cy="14.29" r="0.1"/><circle cx="18.5" cy="14.82" r="0.1"/><circle cx="18.56" cy="14.59" r="0.1"/><circle cx="18.95" cy="14.95" r="0.1"/><circle cx="18.84" cy="14.53" r="0.1"/><circle cx="18.53" cy="14.29" r="0.1"/><circle cx="18.44" cy="13.94" r="0.1"/><circle cx="18.27" cy="13.54" r="0.1"/><circle cx="18.06" cy="13.09" r="0.1"/><circle cx="18.38" cy="13.61" r="0.1"/><circle cx="18.63" cy="14.09" r="0.1"/><circle cx="17.82" cy="14.14" r="0.1"/><circle cx="17.82" cy="13.91" r="0.1"/><circle cx="17.74" cy="13.57" r="0.1"/><circle cx="17.62" cy="13.24" r="0.1"/><circle cx="17.45" cy="12.88" r="0.1"/><circle cx="17.79" cy="12.64" r="0.1"/><circle cx="17.48" cy="12.18" r="0.1"/><circle cx="17.11" cy="11.68" r="0.1"/><circle cx="16.72" cy="11.18" r="0.1"/><circle cx="16.33" cy="10.67" r="0.1"/><circle cx="15.89" cy="10.17" r="0.1"/><circle cx="15.45" cy="9.67" r="0.1"/><circle cx="15.01" cy="9.21" r="0.1"/><circle cx="16.71" cy="12.95" r="0.1"/><circle cx="17.22" cy="12.49" r="0.1"/><circle cx="16.97" cy="14.05" r="0.1"/><circle cx="16.98" cy="13.86" r="0.1"/><circle cx="16.94" cy="13.59" r="0.1"/><circle cx="16.84" cy="13.3" r="0.1"/><circle cx="16.53" cy="12.59" r="0.1"/><circle cx="16.93" cy="12.06" r="0.1"/><circle cx="16.91" cy="14.21" r="0.1"/><circle cx="16.28" cy="12.22" r="0.1"/><circle cx="16.64" cy="11.63" r="0.1"/><circle cx="16.02" cy="11.82" r="0.1"/><circle cx="16.32" cy="11.17" r="0.1"/><circle cx="15.72" cy="11.41" r="0.1"/><circle cx="15.94" cy="10.73" r="0.1"/><circle cx="15.41" cy="10.98" r="0.1"/><circle cx="15.57" cy="10.27" r="0.1"/><circle cx="15.06" cy="10.58" r="0.1"/><circle cx="15.14" cy="9.81" r="0.1"/><circle cx="14.68" cy="10.16" r="0.1"/><circle cx="14.8" cy="9.42" r="0.1"/><circle cx="14.39" cy="9.83" r="0.1"/><circle cx="14.64" cy="8.84" r="0.1"/><circle cx="14.43" cy="9.05" r="0.1"/><circle cx="14.02" cy="9.46" r="0.1"/><circle cx="15.18" cy="11.82" r="0.1"/><circle cx="14.73" cy="12.27" r="0.1"/><circle cx="15.46" cy="12.19" r="0.1"/><circle cx="15.46" cy="12.19" r="0.1"/><circle cx="15.07" cy="12.72" r="0.1"/><circle cx="15.67" cy="12.59" r="0.1"/><circle cx="15.28" cy="13.13" r="0.1"/><circle cx="15.89" cy="12.99" r="0.1"/><circle cx="15.47" cy="13.51" r="0.1"/><circle cx="16.05" cy="13.33" r="0.1"/><circle cx="16.17" cy="13.65" r="0.1"/><circle cx="16.26" cy="13.96" r="0.1"/><circle cx="14.89" cy="11.42" r="0.1"/><circle cx="14.44" cy="11.87" r="0.1"/><circle cx="14.53" cy="11" r="0.1"/><circle cx="14.1" cy="11.43" r="0.1"/><circle cx="14.19" cy="10.62" r="0.1"/><circle cx="13.76" cy="11.05" r="0.1"/><circle cx="13.92" cy="10.3" r="0.1"/><circle cx="13.47" cy="10.75" r="0.1"/><circle cx="13.54" cy="9.93" r="0.1"/><circle cx="13.09" cy="10.38" r="0.1"/><circle cx="18.13" cy="15.01" r="0.1"/><circle cx="18.39" cy="14.95" r="0.1"/><circle cx="18.52" cy="15.9" r="0.12"/><circle cx="18.8" cy="15.79" r="0.1"/><circle cx="18.94" cy="15.59" r="0.1"/><circle cx="18.98" cy="15.3" r="0.1"/><circle cx="18.07" cy="16.89" r="0.16"/><circle cx="17.94" cy="17.61" r="0.12"/><circle cx="18.26" cy="17.39" r="0.1"/><circle cx="17.52" cy="17.68" r="0.1"/><circle cx="18.47" cy="16.83" r="0.12"/><circle cx="18.75" cy="16.69" r="0.1"/><circle cx="18.91" cy="16.43" r="0.1"/><circle cx="18.96" cy="16.1" r="0.1"/><circle cx="17.69" cy="15.77" r="0.18"/><circle cx="17.38" cy="14.86" r="0.1"/><circle cx="16.91" cy="16.51" r="0.2"/><circle cx="17.12" cy="15.48" r="0.18"/><circle cx="16.88" cy="14.61" r="0.1"/><circle cx="13.98" cy="17.47" r="0.14"/><circle cx="14.85" cy="13.21" r="0.1"/><circle cx="13.29" cy="14.06" r="0.2"/><circle cx="13.85" cy="13.17" r="0.18"/><circle cx="14.07" cy="12.52" r="0.1"/><circle cx="12.93" cy="12.32" r="0.18"/><circle cx="13.31" cy="11.81" r="0.1"/><circle cx="10.51" cy="12.97" r="0.2"/><circle cx="9.87" cy="13.61" r="0.18"/><circle cx="9.55" cy="13.92" r="0.1"/><circle cx="10.29" cy="11.15" r="0.2"/><circle cx="9.46" cy="11.92" r="0.2"/><circle cx="8.87" cy="12.61" r="0.18"/><circle cx="8.5" cy="12.94" r="0.14"/><circle cx="7.69" cy="12.04" r="0.14"/><circle cx="7.97" cy="11.62" r="0.18"/><circle cx="7.21" cy="10.58" r="0.18"/><circle cx="8.5" cy="10.88" r="0.2"/><circle cx="7.67" cy="9.84" r="0.2"/><circle cx="8.54" cy="9.11" r="0.2"/><circle cx="7.83" cy="8.17" r="0.2"/><circle cx="6.98" cy="8.87" r="0.2"/><circle cx="6.51" cy="9.63" r="0.18"/><circle cx="6.41" cy="10.27" r="0.14"/><circle cx="6.99" cy="11.15" r="0.14"/><circle cx="9.45" cy="8.63" r="0.18"/><circle cx="8.81" cy="7.8" r="0.18"/><circle cx="9.62" cy="7.84" r="0.1"/><circle cx="9.16" cy="7.12" r="0.1"/><circle cx="8.27" cy="7.01" r="0.18"/><circle cx="7.3" cy="7.29" r="0.2"/><circle cx="6.43" cy="7.94" r="0.2"/><circle cx="6.03" cy="8.78" r="0.18"/><circle cx="5.6" cy="8.7" r="0.14"/><circle cx="5.42" cy="8.05" r="0.14"/><circle cx="5.44" cy="7.28" r="0.1"/><circle cx="5.41" cy="6.72" r="0.1"/><circle cx="5.46" cy="6.28" r="0.1"/><circle cx="6.05" cy="7.11" r="0.2"/><circle cx="5.82" cy="6.45" r="0.18"/><circle cx="6.62" cy="5.87" r="0.2"/><circle cx="7.53" cy="5.25" r="0.16"/><circle cx="8.44" cy="5.6" r="0.1"/><circle cx="8.98" cy="6" r="0.1"/><circle cx="9" cy="6.31" r="0.1"/><circle cx="9.14" cy="6.67" r="0.1"/><circle cx="9.36" cy="7.16" r="0.1"/><circle cx="9.02" cy="5.82" r="0.1"/><circle cx="9.12" cy="5.66" r="0.1"/><circle cx="8.6" cy="4.92" r="0.1"/><circle cx="8.83" cy="4.86" r="0.1"/><circle cx="8.47" cy="4.47" r="0.1"/><circle cx="8.89" cy="4.58" r="0.1"/><circle cx="9.12" cy="4.89" r="0.1"/><circle cx="9.47" cy="4.98" r="0.1"/><circle cx="9.87" cy="5.14" r="0.1"/><circle cx="10.32" cy="5.36" r="0.1"/><circle cx="9.81" cy="5.03" r="0.1"/><circle cx="9.33" cy="4.78" r="0.1"/><circle cx="9.28" cy="5.6" r="0.1"/><circle cx="9.51" cy="5.6" r="0.1"/><circle cx="9.84" cy="5.67" r="0.1"/><circle cx="10.17" cy="5.79" r="0.1"/><circle cx="10.53" cy="5.97" r="0.1"/><circle cx="10.78" cy="5.63" r="0.1"/><circle cx="11.23" cy="5.94" r="0.1"/><circle cx="11.74" cy="6.31" r="0.1"/><circle cx="12.23" cy="6.69" r="0.1"/><circle cx="12.75" cy="7.09" r="0.1"/><circle cx="13.24" cy="7.53" r="0.1"/><circle cx="13.75" cy="7.97" r="0.1"/><circle cx="14.2" cy="8.4" r="0.1"/><circle cx="10.47" cy="6.7" r="0.1"/><circle cx="10.92" cy="6.19" r="0.1"/><circle cx="9.37" cy="6.44" r="0.1"/><circle cx="9.56" cy="6.44" r="0.1"/><circle cx="9.82" cy="6.48" r="0.1"/><circle cx="10.11" cy="6.58" r="0.1"/><circle cx="10.82" cy="6.88" r="0.1"/><circle cx="11.36" cy="6.49" r="0.1"/><circle cx="9.21" cy="6.51" r="0.1"/><circle cx="11.19" cy="7.14" r="0.1"/><circle cx="11.79" cy="6.78" r="0.1"/><circle cx="11.59" cy="7.39" r="0.1"/><circle cx="12.25" cy="7.1" r="0.1"/><circle cx="12" cy="7.69" r="0.1"/><circle cx="12.69" cy="7.47" r="0.1"/><circle cx="12.43" cy="8.01" r="0.1"/><circle cx="13.14" cy="7.85" r="0.1"/><circle cx="12.84" cy="8.35" r="0.1"/><circle cx="13.6" cy="8.28" r="0.1"/><circle cx="13.26" cy="8.74" r="0.1"/><circle cx="13.99" cy="8.62" r="0.1"/><circle cx="13.59" cy="9.02" r="0.1"/><circle cx="11.6" cy="8.24" r="0.1"/><circle cx="11.15" cy="8.69" r="0.1"/><circle cx="11.22" cy="7.96" r="0.1"/><circle cx="11.22" cy="7.96" r="0.1"/><circle cx="10.69" cy="8.35" r="0.1"/><circle cx="10.82" cy="7.74" r="0.1"/><circle cx="10.29" cy="8.14" r="0.1"/><circle cx="10.43" cy="7.52" r="0.1"/><circle cx="9.91" cy="7.94" r="0.1"/><circle cx="10.09" cy="7.37" r="0.1"/><circle cx="9.76" cy="7.24" r="0.1"/><circle cx="9.45" cy="7.16" r="0.1"/><circle cx="12" cy="8.52" r="0.1"/><circle cx="11.55" cy="8.97" r="0.1"/><circle cx="12.42" cy="8.89" r="0.1"/><circle cx="11.99" cy="9.31" r="0.1"/><circle cx="12.8" cy="9.22" r="0.1"/><circle cx="12.37" cy="9.66" r="0.1"/><circle cx="13.11" cy="9.5" r="0.1"/><circle cx="12.66" cy="9.95" r="0.1"/><circle cx="8.41" cy="5.28" r="0.1"/><circle cx="8.47" cy="5.02" r="0.1"/><circle cx="7.52" cy="4.89" r="0.12"/><circle cx="7.63" cy="4.62" r="0.1"/><circle cx="7.82" cy="4.48" r="0.1"/><circle cx="8.12" cy="4.43" r="0.1"/><circle cx="6.53" cy="5.35" r="0.16"/><circle cx="5.8" cy="5.48" r="0.12"/><circle cx="6.03" cy="5.16" r="0.1"/><circle cx="5.73" cy="5.9" r="0.1"/><circle cx="6.58" cy="4.94" r="0.12"/><circle cx="6.72" cy="4.66" r="0.1"/><circle cx="6.99" cy="4.5" r="0.1"/><circle cx="7.32" cy="4.45" r="0.1"/><circle cx="7.65" cy="5.73" r="0.18"/><circle cx="8.56" cy="6.04" r="0.1"/><circle cx="6.9" cy="6.51" r="0.2"/><circle cx="7.94" cy="6.3" r="0.18"/><circle cx="8.81" cy="6.53" r="0.1"/><circle cx="5.94" cy="9.43" r="0.14"/><circle cx="10.21" cy="8.57" r="0.1"/><circle cx="9.35" cy="10.13" r="0.2"/><circle cx="10.24" cy="9.57" r="0.18"/><circle cx="10.89" cy="9.35" r="0.1"/><circle cx="11.09" cy="10.48" r="0.18"/><circle cx="11.61" cy="10.11" r="0.1"/><path d="M6.55,17h0a.17.17,0,0,1,0-.23L9.26,14l.23.22L6.78,17A.17.17,0,0,1,6.55,17Z"/><path d="M12.75,11l-.23-.23L16.7,6.55a.17.17,0,0,1,.23,0h0a.17.17,0,0,1,0,.23Z"/></g></g></svg>