<svg xmlns="http://www.w3.org/2000/svg" viewBox="0 0 97.85 98.3"><defs><style>.cls-1{fill:#fff;}</style></defs><g id="Capa_2" data-name="Capa 2"><g id="Capa_1-2" data-name="Capa 1"><path class="cls-1" d="M46.34,60.7a21.37,21.37,0,0,1-5.27-1c-1.35-.5-2.35-.9-3-1.23L40,53.35a22.48,22.48,0,0,0,3.72,1.38,16.16,16.16,0,0,0,4.56.63A6.62,6.62,0,0,0,52,54.62a2.42,2.42,0,0,0,1-2.07,2.65,2.65,0,0,0-.4-1.45A4.08,4.08,0,0,0,51.42,50a11.83,11.83,0,0,0-1.92-.95c-.77-.31-1.66-.65-2.67-1S44.9,47.31,44,46.88a11.61,11.61,0,0,1-2.53-1.58,6.83,6.83,0,0,1-2.52-5.57,9.44,9.44,0,0,1,.42-2.82A7.44,7.44,0,0,1,43,32.54a11.57,11.57,0,0,1,3.38-1.13V26.6H52v4.63a25,25,0,0,1,4,.67,17.39,17.39,0,0,1,2.64.89L57.2,38.13a21.36,21.36,0,0,0-3.4-1.07,18.53,18.53,0,0,0-4.07-.44,5.09,5.09,0,0,0-3.07.71,2.22,2.22,0,0,0-.94,1.87A2.47,2.47,0,0,0,46,40.42a2.63,2.63,0,0,0,.91.91,9.55,9.55,0,0,0,1.54.78c.61.26,1.34.53,2.2.83a34.13,34.13,0,0,1,3.63,1.56,13.5,13.5,0,0,1,2.89,1.94A7.77,7.77,0,0,1,59.1,49a8,8,0,0,1,.69,3.42,9.31,9.31,0,0,1-.4,2.65,7,7,0,0,1-1.34,2.42,8.2,8.2,0,0,1-2.43,1.92A11.58,11.58,0,0,1,52,60.56V66H46.34Z"/><path class="cls-1" d="M49.22,98.3h-.59a3.14,3.14,0,0,1-.91-.14A75.68,75.68,0,0,1,11.63,70.31C-2.47,49.63.15,15.19.26,13.74a3,3,0,0,1,2.29-2.68L48.22.08a3.05,3.05,0,0,1,1.41,0l45.67,11a3,3,0,0,1,2.29,2.68c.12,1.45,2.73,35.89-11.37,56.57A75.68,75.68,0,0,1,50.13,98.16,3.14,3.14,0,0,1,49.22,98.3ZM6.13,16.37C5.81,24.1,5.59,50.8,16.59,66.93c11.59,17,28.86,24,32.34,25.29C52.39,91,69.67,83.94,81.27,66.93,92.26,50.8,92,24.1,91.72,16.37L48.93,6.09Z"/></g></g></svg>