<svg xmlns="http://www.w3.org/2000/svg" xmlns:xlink="http://www.w3.org/1999/xlink" viewBox="0 0 1102.57 1102.57"><defs><style>.cls-1{fill:#354b5f;}.cls-2{fill:none;}.cls-3,.cls-5{fill:#fff;}.cls-4{fill:url(#Degradado_sin_nombre_132);}.cls-5{font-size:726.59px;font-family:HelveticaNeue-MediumExt, Helvetica Neue Medium Extended;font-weight:500;}</style><linearGradient id="Degradado_sin_nombre_132" x1="872.05" y1="179.79" x2="239.03" y2="912.92" gradientUnits="userSpaceOnUse"><stop offset="0" stop-color="#93c9e3"/><stop offset="0.53" stop-color="#b3c2d8"/><stop offset="1" stop-color="#f6ce77"/></linearGradient></defs><g id="Capa_2" data-name="Capa 2"><g id="Capa_1-2" data-name="Capa 1"><circle class="cls-1" cx="551.28" cy="551.28" r="551.28"/><circle class="cls-2" cx="551.28" cy="551.28" r="486"/><path class="cls-3" d="M698.54,147.18l24.75-24.75c27-27,64-41.92,104.16-41.92,46.31,0,92.82,19.95,127.6,54.72,32,32,51.3,73.24,54.31,116.08,3.14,44.69-11.6,85.77-41.51,115.68L943.1,391.74Z"/><path class="cls-3" d="M140.72,364.91c-29.91-29.91-44.65-71-41.51-115.68,3-42.84,22.3-84.07,54.31-116.08,34.78-34.78,81.28-54.72,127.6-54.72,40.14,0,77.13,14.88,104.16,41.91L410,145.09,165.47,389.66Z"/><path class="cls-4" d="M551.28,1019.78A468.63,468.63,0,0,1,368.93,119.59,468.63,468.63,0,0,1,733.64,983,465.47,465.47,0,0,1,551.28,1019.78Z"/><path class="cls-3" d="M551.28,100.28A451.13,451.13,0,0,1,726.82,966.86,451.13,451.13,0,0,1,375.74,135.71a448.12,448.12,0,0,1,175.54-35.43m0-35c-268.41,0-486,217.59-486,486s217.59,486,486,486,486-217.59,486-486-217.59-486-486-486Z"/><path class="cls-1" d="M751.05,144.39c46.29-47.3,128-42.44,182.39,10.84s61,134.83,14.75,182.12Z"/><path class="cls-1" d="M160.5,329c-44.8-48.71-35.66-130,20.41-181.57s137.84-53.88,182.63-5.17Z"/><text class="cls-5" transform="translate(344.23 782.7) scale(0.77 1)">$</text></g></g></svg>