<svg width="28" height="28" viewBox="0 0 28 28" fill="none" xmlns="http://www.w3.org/2000/svg">
<path d="M23.0844 24.7737L20.6639 22.64L19.2996 21.3717L17.857 20.0323L18.4497 22.1173H5.68595C4.4077 22.1127 3.37482 21.0735 3.37809 19.7952V4.57191C3.37613 3.29458 4.40863 2.25677 5.68595 2.2522H20.7765C22.0538 2.25677 23.0863 3.29458 23.0844 4.57191V24.7737ZM17.7207 14.7078C17.2209 15.3781 16.5013 15.8514 15.6879 16.0448C16.0221 16.4715 16.4251 16.954 16.4287 16.9587C17.7884 16.9875 19.0759 16.3479 19.8745 15.2471C19.8336 12.965 19.2794 10.7213 18.2529 8.68267C17.3493 7.97356 16.2493 7.55972 15.1023 7.49733H15.0893L14.9316 7.6775C15.9561 7.95268 16.9115 8.43967 17.7361 9.10702C16.6869 8.53024 15.5355 8.16308 14.346 8.02599C13.5901 7.94203 12.8267 7.94959 12.0726 8.04851C12.0192 8.04957 11.9661 8.05512 11.9137 8.06511H11.8805C10.9967 8.16687 10.1343 8.40687 9.32495 8.77631C8.91956 8.96241 8.67064 9.09754 8.65997 9.10228C8.6493 9.10702 8.65997 9.10228 8.65997 9.09398C9.53462 8.40606 10.5437 7.909 11.6221 7.63483L11.5036 7.4997H11.4965C10.3495 7.56224 9.2496 7.97606 8.34586 8.68504C7.31569 10.7223 6.76125 12.9668 6.72431 15.2495C7.51296 16.3576 8.80221 16.9996 10.1618 16.9611C10.1618 16.9611 10.5861 16.4443 10.9169 16.0259C10.1239 15.8266 9.42513 15.3571 8.9409 14.6983C8.94919 14.7042 9.06654 14.7836 9.2562 14.8879C9.26894 14.9029 9.28469 14.915 9.30243 14.9235C9.31744 14.9339 9.3333 14.943 9.34984 14.9507C9.36858 14.9593 9.38645 14.9696 9.40318 14.9816C9.66764 15.1273 9.94215 15.2541 10.2246 15.3609C10.7617 15.5735 11.3172 15.7362 11.8841 15.8469C12.3805 15.9404 12.8844 15.9881 13.3895 15.9891C13.8631 15.9891 14.3356 15.9454 14.8012 15.8587C15.3619 15.7603 15.9096 15.598 16.4334 15.3751C16.8859 15.2011 17.3177 14.9772 17.7207 14.7078ZM15.305 14.2016C14.7893 14.2466 14.2989 13.9704 14.07 13.506C13.8411 13.0417 13.9208 12.4845 14.2706 12.1029C14.6204 11.7213 15.1685 11.5935 15.651 11.7812C16.1334 11.9688 16.4512 12.4334 16.4512 12.9511C16.4773 13.6124 15.9649 14.1709 15.3038 14.2016H15.305ZM11.1942 14.2016C10.5457 14.1451 10.048 13.6021 10.048 12.9511C10.048 12.3001 10.5457 11.7571 11.1942 11.7005C11.493 11.7015 11.7786 11.8233 11.986 12.0384C12.2214 12.2826 12.3494 12.6108 12.3416 12.9499C12.3691 13.6123 11.8554 14.1721 11.193 14.2016H11.1942Z" fill="#EAAB50"/>
</svg>
