<svg width="22" height="23" viewBox="0 2 18 23" fill="none" xmlns="http://www.w3.org/2000/svg">
<path d="M1.80308 0C4.89231 0 7.98769 0 11.0769 0C11.0769 1.51213 11.0769 3.02426 11.0769 4.53639C11.0769 5.91051 11.9323 6.73859 13.3538 6.73859C14.8123 6.73859 16.2769 6.73859 17.7354 6.73859C17.8154 6.73859 17.9015 6.73859 18 6.73859C18 6.83459 18 6.9066 18 6.98461C18 11.617 18 16.2494 18 20.8818C18 22.1299 17.1077 23 15.8215 23C11.2738 23 6.73231 23 2.18462 23C2.05538 23 1.92 23 1.79692 22.976C0.701539 22.802 0 21.9859 0 20.8878C0 16.2974 0 11.701 0 7.10462C0 5.41847 0 3.73833 0 2.05218C0.00615385 1.33212 0.301538 0.750065 0.916923 0.360031C1.18154 0.192017 1.50154 0.12001 1.80308 0ZM8.99692 10.8249C10.3569 10.8249 11.7169 10.8249 13.0769 10.8249C13.3908 10.8249 13.6308 10.7169 13.7723 10.4349C14 9.97887 13.6615 9.47482 13.1138 9.47482C11.8215 9.46882 10.5292 9.47482 9.24308 9.47482C7.79692 9.47482 6.35077 9.47482 4.91077 9.47482C4.60923 9.47482 4.36923 9.58283 4.23385 9.85286C3.99385 10.3149 4.33846 10.8189 4.89846 10.8249C6.26462 10.8249 7.63077 10.8249 8.99692 10.8249ZM9.00308 13.5192C10.3631 13.5192 11.7231 13.5192 13.0831 13.5192C13.3969 13.5192 13.6369 13.4052 13.7785 13.1291C14.0062 12.6731 13.6615 12.1751 13.1138 12.1751C11.6308 12.1691 10.1477 12.1751 8.66462 12.1751C7.40923 12.1751 6.16 12.1751 4.90462 12.1751C4.60308 12.1751 4.36308 12.2891 4.22769 12.5531C3.98769 13.0151 4.33231 13.5192 4.89846 13.5192C6.26462 13.5192 7.63692 13.5192 9.00308 13.5192ZM8.99692 14.8693C7.63692 14.8693 6.27692 14.8693 4.91692 14.8693C4.59077 14.8693 4.34462 14.9893 4.21538 15.2773C4 15.7394 4.35692 16.2134 4.91077 16.2134C6.60308 16.2134 8.28923 16.2134 9.98154 16.2134C11.0215 16.2134 12.0554 16.2134 13.0954 16.2134C13.4092 16.2134 13.6492 16.0934 13.7846 15.8114C14.0062 15.3493 13.6554 14.8633 13.1015 14.8633C11.7354 14.8633 10.3631 14.8693 8.99692 14.8693ZM7.63692 17.5635C6.73846 17.5635 5.84 17.5635 4.94154 17.5635C4.47385 17.5635 4.16 17.8336 4.15385 18.2296C4.14769 18.6316 4.46769 18.9076 4.92923 18.9076C6.72 18.9076 8.51077 18.9076 10.3015 18.9076C10.7631 18.9076 11.0831 18.6316 11.0769 18.2296C11.0769 17.8276 10.7631 17.5635 10.2892 17.5635C9.40923 17.5635 8.52308 17.5635 7.63692 17.5635Z" fill="#EAAB50"/>
<path d="M12.6 0.890381C14.3564 2.38145 16.1 3.85092 17.85 5.33659C17.7927 5.33659 17.7355 5.34199 17.6782 5.34199C16.2527 5.34199 14.8336 5.34199 13.4082 5.34199C12.8864 5.34199 12.6 5.09888 12.6 4.65588C12.6 3.45654 12.6 2.2572 12.6 1.06326C12.6 1.00923 12.6 0.95521 12.6 0.890381Z" fill="#EAAB50"/>
</svg>
