<svg width="28" height="28" viewBox="0 0 28 28" fill="none" xmlns="http://www.w3.org/2000/svg">
<path d="M13.5376 0.000122429C6.91092 -0.000728773 1.26194 4.80519 0.200953 11.3464C-0.860034 17.8877 2.98026 24.2327 9.26751 26.3265C9.94467 26.4484 10.1871 26.0326 10.1871 25.6751C10.1871 25.3541 10.1763 24.5036 10.1722 23.3728C6.41398 24.1854 5.62036 21.5607 5.62036 21.5607C5.37295 20.744 4.84106 20.043 4.12114 19.5848C2.90226 18.7465 4.21458 18.7654 4.21458 18.7654C5.08226 18.8844 5.84592 19.3985 6.28261 20.1577C6.65225 20.8297 7.275 21.3264 8.01248 21.5372C8.74996 21.748 9.5411 21.6556 10.2101 21.2804C10.273 20.5951 10.5779 19.9546 11.0701 19.4737C8.07166 19.1338 4.91882 17.9745 4.91882 12.797C4.90218 11.4578 5.39947 10.1633 6.30835 9.17963C5.89711 8.01399 5.94554 6.73544 6.44378 5.60425C6.44378 5.60425 7.57733 5.23994 10.1573 6.987C12.37 6.38028 14.7053 6.38028 16.918 6.987C19.4993 5.23859 20.6315 5.60425 20.6315 5.60425C21.1321 6.73491 21.1805 8.01435 20.7669 9.17963C21.6792 10.1632 22.176 11.4612 22.1538 12.8024C22.1538 17.9935 18.9982 19.1338 15.9889 19.4683C16.6381 20.132 16.971 21.0425 16.9031 21.9684C16.9031 23.775 16.8869 25.2323 16.8869 25.6751C16.8869 26.0367 17.1279 26.4565 17.8173 26.3238C24.1019 24.2265 27.9381 17.881 26.8749 11.3415C25.8117 4.80203 20.163 -0.00139364 13.5376 0.000122429Z" fill="#EAAB50"/>
</svg>
