<svg width="29" height="29" viewBox="0 0 29 29" fill="none" xmlns="http://www.w3.org/2000/svg">
<path fill-rule="evenodd" clip-rule="evenodd" d="M3.3976 7.59682C3.4326 7.24036 3.30077 6.88873 3.0441 6.64948L0.43077 3.38698V2.90002H8.54844L14.8228 17.1523L20.3388 2.90002H28.0773V3.38698L25.8419 5.60669C25.6494 5.75894 25.5538 6.00907 25.5934 6.25677V22.5669C25.5538 22.8134 25.6494 23.0635 25.8419 23.2157L28.0248 25.4354V25.9224H17.0441V25.4354L19.3063 23.1614C19.5279 22.9318 19.5279 22.8641 19.5279 22.5125V9.32957L13.2408 25.8692H12.3914L5.0706 9.32957V20.4148C5.00994 20.88 5.15927 21.3501 5.47544 21.686L8.4166 25.3811V25.8692H0.0772705V25.3811L3.01844 21.686C3.33344 21.3489 3.47344 20.8764 3.3976 20.4148V7.59682Z" fill="#EAAB50"/>
</svg>
