<svg width="28" height="28" viewBox="0 0 28 28" fill="none" xmlns="http://www.w3.org/2000/svg">
<path d="M23.8939 6.164C25.0521 5.47161 25.9186 4.38137 26.3319 3.09683C25.2435 3.74257 24.0528 4.19744 22.8112 4.44179C21.0897 2.62077 18.3623 2.17761 16.1528 3.35995C13.9434 4.54228 12.799 7.0574 13.359 9.49991C8.90117 9.2761 4.7479 7.17035 1.93271 3.70665C0.463511 6.24077 1.2143 9.48025 3.64846 11.1097C2.76824 11.0814 1.90755 10.8431 1.13813 10.4146C1.13813 10.4379 1.13813 10.4611 1.13813 10.4844C1.13864 13.1241 2.99907 15.3979 5.58644 15.9211C4.76999 16.1432 3.91359 16.1759 3.08257 16.0167C3.81022 18.2741 5.89077 19.8207 8.26214 19.8668C6.29811 21.4083 3.87259 22.2443 1.37586 22.2402C0.933317 22.2408 0.491122 22.2154 0.0515747 22.164C2.58695 23.7932 5.53782 24.658 8.55155 24.6549C12.7444 24.6837 16.7738 23.0308 19.7385 20.0658C22.7032 17.1008 24.3558 13.0713 24.3267 8.87846C24.3267 8.63816 24.3211 8.39914 24.3099 8.16141C25.3957 7.37666 26.3329 6.40451 27.0773 5.29062C26.0657 5.73902 24.9927 6.03341 23.8939 6.164Z" fill="#EAAB50"/>
</svg>
