<svg width="130" height="108" viewBox="0 0 130 108" fill="none" xmlns="http://www.w3.org/2000/svg">
<path d="M119.586 60.0286H16.6602L40.8844 48.4097H94.4847L119.586 60.0286Z" fill="#B6C9E9"/>
<path d="M119.586 60.0285V59.8093H17.8664L40.8849 48.7385H94.3755L119.477 60.3574L119.586 60.0285V59.8093V60.0285L119.696 59.8093L94.5948 48.1904H94.4852H40.8849C40.7753 48.1904 40.7753 48.1904 40.7753 48.1904L16.551 59.8093C16.4414 59.9189 16.4414 60.0285 16.4414 60.1381C16.4414 60.2478 16.551 60.3574 16.6606 60.3574H119.586C119.696 60.3574 119.806 60.2478 119.915 60.1381C119.915 60.0285 119.806 59.9189 119.696 59.8093L119.586 60.0285Z" fill="#E5E6E7"/>
<path d="M16.6602 71.4285H119.586V59.8096H16.6602V71.4285Z" fill="#7DA4D6"/>
<path d="M119.586 71.4284V71.2092H16.9895V60.1384H119.367V71.4284H119.586V71.2092V71.4284H119.915V59.8096C119.915 59.8096 119.806 59.6999 119.806 59.5903C119.696 59.5903 119.696 59.5903 119.586 59.5903H16.6606H16.551C16.4414 59.6999 16.4414 59.8096 16.4414 59.8096V71.4284C16.4414 71.538 16.4414 71.6476 16.551 71.6476C16.551 71.7573 16.6606 71.7573 16.6606 71.7573H119.586C119.696 71.7573 119.696 71.7573 119.806 71.6476C119.806 71.6476 119.915 71.538 119.915 71.4284H119.586Z" fill="#E5E6E7"/>
<path d="M89.5542 55.7538H45.5998C45.0517 55.7538 44.6133 55.425 44.6133 54.8769C44.6133 54.4384 45.0517 54 45.5998 54H89.5542C89.9927 54 90.4311 54.4384 90.4311 54.8769C90.4311 55.425 89.9927 55.7538 89.5542 55.7538Z" fill="#201F55"/>
<path d="M86.2631 23.4184V55.8636H47.6797V27.1452L52.1738 22.7607H85.4958C85.9343 22.7607 86.2631 23.0896 86.2631 23.4184Z" fill="#E5E6E7"/>
<path d="M86.2656 30.2143V45.1216L86.4849 29.9951L86.2656 30.2143Z" fill="#7293BD"/>
<path d="M86.2656 30.2141V26.0488L86.4849 25.8296V29.9949L86.2656 30.2141Z" fill="#A84039"/>
<path d="M52.0642 22.6509V27.2546H47.6797L52.0642 22.6509Z" fill="#E5E6E7"/>
<path d="M59.2991 41.8328H59.0799C59.0799 42.7097 58.7511 43.477 58.203 44.025C57.655 44.4635 56.9973 44.7923 56.1204 44.7923C55.3531 44.7923 54.5858 44.4635 54.0378 44.025C53.4897 43.477 53.1609 42.7097 53.1609 41.8328C53.1609 41.0655 53.4897 40.2982 54.0378 39.7502C54.5858 39.2021 55.3531 38.8733 56.1204 38.8733C56.9973 38.8733 57.655 39.2021 58.203 39.7502C58.7511 40.2982 59.0799 41.0655 59.0799 41.8328H59.5184C59.5184 40.079 57.9838 38.5444 56.1204 38.5444C54.257 38.5444 52.832 40.079 52.832 41.8328C52.832 43.6962 54.257 45.2308 56.1204 45.2308C57.9838 45.2308 59.5184 43.6962 59.5184 41.8328H59.2991Z" fill="#201F55"/>
<path d="M79.4689 42.162H63.5752C63.3559 42.162 63.1367 41.8332 63.1367 41.614C63.1367 41.2851 63.3559 41.0659 63.5752 41.0659H79.4689C79.7977 41.0659 80.017 41.2851 80.017 41.614C80.017 41.8332 79.7977 42.162 79.4689 42.162Z" fill="#201F55"/>
<path d="M79.4689 54.2194H63.5752C63.3559 54.2194 63.1367 54.0002 63.1367 53.6714C63.1367 53.4521 63.3559 53.2329 63.5752 53.2329H79.4689C79.7977 53.2329 80.017 53.4521 80.017 53.6714C80.017 54.0002 79.7977 54.2194 79.4689 54.2194Z" fill="#201F55"/>
<path d="M59.2991 53.9998H59.0799C59.0799 54.6575 58.8607 55.3151 58.4222 55.8632H58.8607C59.2991 55.3151 59.5184 54.6575 59.5184 53.9998H59.2991ZM53.8185 55.8632C53.3801 55.3151 53.1609 54.6575 53.1609 53.9998C53.1609 53.2325 53.4897 52.4652 54.0378 51.9172C54.5858 51.3691 55.3531 51.0403 56.1204 51.0403C56.9973 51.0403 57.655 51.3691 58.203 51.9172C58.7511 52.4652 59.0799 53.2325 59.0799 53.9998H59.5184C59.5184 52.1364 57.9838 50.7114 56.1204 50.7114C54.257 50.7114 52.832 52.1364 52.832 53.9998C52.832 54.6575 53.0513 55.3151 53.3801 55.8632H53.8185Z" fill="#201F55"/>
<path d="M53.9278 41.5041L55.0239 43.9155C55.1336 44.0252 55.2432 44.2444 55.4624 44.2444C55.6816 44.2444 55.9008 44.2444 56.0105 44.0252L60.3949 39.5311C60.6142 39.3118 60.6142 38.8734 60.3949 38.6542C60.0661 38.4349 59.7373 38.4349 59.4084 38.6542L55.7912 42.4906L55.0239 40.956C54.9143 40.6272 54.5855 40.5176 54.2567 40.6272C53.9278 40.8464 53.8182 41.1752 53.9278 41.5041Z" fill="#D15E2C"/>
<path d="M16.6602 106.833H119.586V71.5381H16.6602V106.833Z" fill="#31386B"/>
<path d="M119.586 106.833V106.614H16.8799V71.7573H119.367V106.833H119.586V106.614V106.833H119.806V71.3188H16.4414V107.052H119.806V106.833H119.586Z" fill="#E5E6E7"/>
<path d="M79.7992 76.251H57.3287C56.123 76.251 55.2461 75.2645 55.2461 74.0588V71.5377C55.2461 70.332 56.123 69.4551 57.3287 69.4551H79.7992C81.0049 69.4551 81.9914 70.332 81.9914 71.5377V74.0588C81.9914 75.2645 81.0049 76.251 79.7992 76.251Z" fill="#201F55"/>
<path d="M16.4414 106.614V86.1162L16.8799 85.6777L16.4414 106.614Z" fill="#C0C6D4"/>
<path d="M16.8789 106.614V85.0202L17.3174 84.6914L16.8789 106.614Z" fill="#29468A"/>
<path d="M16.8799 107.052H16.6606H16.4414V106.614L16.8799 85.6777L16.4414 86.1161V85.4585L16.8799 85.02V106.614V107.052Z" fill="#C0C6D4"/>
<path d="M119.696 106.614L119.367 88.0895V85.7876L119.806 86.1164V106.614H119.696Z" fill="#C0C6D4"/>
<path d="M119.368 106.614H119.259L118.93 84.6914L119.368 85.1299V85.7875V85.6779V88.0894V106.614Z" fill="#29468A"/>
<path d="M119.477 107.052H119.258V106.614H119.367V88.0894L119.696 106.614H119.806V107.052H119.477ZM119.587 106.833V106.614V106.833ZM119.806 86.1164L119.367 85.7876V85.1299L119.806 85.5683V86.1164Z" fill="#C0C6D4"/>
<path d="M74.3188 8.40148C73.6611 8.40148 73.2227 7.96303 73.2227 7.41497C73.2227 6.7573 73.6611 6.31885 74.3188 6.31885C74.8668 6.31885 75.3053 6.7573 75.3053 7.41497C75.3053 7.96303 74.8668 8.40148 74.3188 8.40148Z" fill="#3290FE"/>
<path d="M74.3158 8.8399C73.4389 8.8399 72.7812 8.18222 72.7812 7.41494C72.7812 6.53804 73.4389 5.88037 74.3158 5.88037C75.0831 5.88037 75.7408 6.53804 75.7408 7.41494C75.7408 8.18222 75.0831 8.8399 74.3158 8.8399ZM74.3158 6.31882C73.6581 6.31882 73.2197 6.75727 73.2197 7.41494C73.2197 7.963 73.6581 8.40145 74.3158 8.40145C74.8639 8.40145 75.3023 7.963 75.3023 7.41494C75.3023 6.75727 74.8639 6.31882 74.3158 6.31882Z" fill="#3290FE"/>
<path d="M127.806 46.9847C127.806 48.0808 126.82 49.0674 125.614 49.0674C124.408 49.0674 123.531 48.0808 123.531 46.9847C123.531 45.779 124.408 44.7925 125.614 44.7925C126.82 44.7925 127.806 45.779 127.806 46.9847Z" fill="#7DA4D6"/>
<path d="M127.807 46.9847H127.478C127.478 47.4232 127.259 47.9712 126.93 48.3C126.601 48.6289 126.163 48.8481 125.615 48.8481C125.067 48.8481 124.628 48.6289 124.299 48.3C123.97 47.9712 123.751 47.4232 123.751 46.9847C123.751 46.4366 123.97 45.9982 124.299 45.6694C124.628 45.2309 125.067 45.1213 125.615 45.1213C126.163 45.1213 126.601 45.2309 126.93 45.6694C127.259 45.9982 127.478 46.4366 127.478 46.9847H128.026C128.026 45.5597 126.93 44.5732 125.615 44.5732C124.299 44.5732 123.203 45.5597 123.203 46.9847C123.203 48.3 124.299 49.2866 125.615 49.2866C126.93 49.2866 128.026 48.3 128.026 46.9847H127.807Z" fill="#31386B"/>
<path d="M8.65969 23.3085H8.44047C8.44047 24.0758 7.78279 24.6238 7.12512 24.6238C6.35784 24.6238 5.70017 24.0758 5.70017 23.3085C5.70017 22.5412 6.35784 21.9931 7.12512 21.9931C7.78279 21.9931 8.44047 22.5412 8.44047 23.3085H8.87891C8.87891 22.322 8.11163 21.5547 7.12512 21.5547C6.13861 21.5547 5.26172 22.322 5.26172 23.3085C5.26172 24.295 6.13861 25.0623 7.12512 25.0623C8.11163 25.0623 8.87891 24.295 8.87891 23.3085H8.65969Z" fill="#2A4D97"/>
<path d="M128.354 78.5531C127.696 78.5531 127.148 78.005 127.148 77.3473C127.148 76.6897 127.696 76.1416 128.354 76.1416C129.012 76.1416 129.56 76.6897 129.56 77.3473C129.56 78.005 129.012 78.5531 128.354 78.5531Z" fill="#3290FE"/>
<path d="M128.355 78.9915C127.478 78.9915 126.711 78.3338 126.711 77.3473C126.711 76.4704 127.478 75.7031 128.355 75.7031C129.232 75.7031 129.999 76.4704 129.999 77.3473C129.999 78.3338 129.232 78.9915 128.355 78.9915ZM128.355 76.1416C127.697 76.1416 127.149 76.6896 127.149 77.3473C127.149 78.005 127.697 78.553 128.355 78.553C129.013 78.553 129.561 78.005 129.561 77.3473C129.561 76.6896 129.013 76.1416 128.355 76.1416Z" fill="#3290FE"/>
<path d="M3.17827 73.4015C3.17827 74.1688 2.5206 74.8265 1.75332 74.8265C0.876422 74.8265 0.21875 74.1688 0.21875 73.4015C0.21875 72.6342 0.876422 71.9766 1.75332 71.9766C2.5206 71.9766 3.17827 72.6342 3.17827 73.4015Z" fill="#7DA4D6"/>
<path d="M3.17875 73.4012H2.84991C2.84991 74.0589 2.41146 74.607 1.75379 74.607C1.09612 74.607 0.54806 74.0589 0.54806 73.4012C0.54806 72.7436 1.09612 72.1955 1.75379 72.1955C2.41146 72.1955 2.84991 72.7436 2.84991 73.4012H3.39797C3.39797 72.4147 2.63069 71.6475 1.75379 71.6475C0.767284 71.6475 0 72.4147 0 73.4012C0 74.3878 0.767284 75.155 1.75379 75.155C2.63069 75.155 3.39797 74.3878 3.39797 73.4012H3.17875Z" fill="#E5E6E7"/>
<path d="M47.0239 19.1435C46.9143 19.1435 46.8047 19.0339 46.8047 18.9243V7.19579C46.8047 7.08617 46.9143 6.97656 47.0239 6.97656C47.1335 6.97656 47.2431 7.08617 47.2431 7.19579V18.9243C47.2431 19.0339 47.1335 19.1435 47.0239 19.1435Z" fill="#3290FE"/>
<path d="M47.0239 5.22262C46.9143 5.22262 46.8047 5.11301 46.8047 5.0034V1.16698C46.8047 1.05737 46.9143 0.947754 47.0239 0.947754C47.1335 0.947754 47.2431 1.05737 47.2431 1.16698V5.0034C47.2431 5.11301 47.1335 5.22262 47.0239 5.22262Z" fill="#3290FE"/>
<path d="M45.1621 19.9105H45.0525L37.0508 11.2512C37.0508 11.1416 37.0508 11.032 37.0508 10.9224C37.1604 10.9224 37.1604 10.9224 37.27 10.9224H37.3796L45.2717 19.5817C45.3813 19.6913 45.3813 19.8009 45.2717 19.9105C45.2717 19.9105 45.2717 19.9105 45.1621 19.9105Z" fill="#3290FE"/>
<path d="M35.7327 9.71658L35.623 9.60697L32.9924 6.75706C32.8828 6.64745 32.8828 6.53783 32.9924 6.42822H33.102C33.2116 6.42822 33.2116 6.42822 33.3212 6.42822L35.8423 9.38775C35.9519 9.38775 35.9519 9.49736 35.8423 9.60697C35.8423 9.60697 35.8423 9.71658 35.7327 9.71658Z" fill="#3290FE"/>
<path d="M44.393 22.103L32.6645 21.5549C32.5549 21.5549 32.4453 21.4453 32.4453 21.3357C32.4453 21.2261 32.5549 21.2261 32.6645 21.2261L44.393 21.6645C44.5026 21.6645 44.6122 21.7741 44.6122 21.8837C44.6122 21.9934 44.5026 22.103 44.393 22.103Z" fill="#3290FE"/>
<path d="M30.4736 21.445L26.5276 21.3354C26.418 21.3354 26.418 21.2258 26.418 21.1162C26.418 21.0066 26.418 20.897 26.5276 20.897H26.6372L30.4736 21.1162C30.5832 21.1162 30.6928 21.2258 30.6928 21.3354C30.6928 21.445 30.5832 21.445 30.4736 21.445Z" fill="#3290FE"/>
</svg>
