<svg width="24" height="24" viewBox="0 0 24 24" fill="none" xmlns="http://www.w3.org/2000/svg">
<path d="M20.5467 21.1016L18.485 19.2842L17.323 18.2039L16.0942 17.0631L16.5991 18.839H5.72744C4.63868 18.8351 3.75892 17.9499 3.7617 16.8611V3.89456C3.76003 2.80659 4.63947 1.92263 5.72744 1.91873H18.5809C19.6689 1.92263 20.5483 2.80659 20.5467 3.89456V21.1016ZM15.9781 12.5278C15.5524 13.0988 14.9395 13.5019 14.2466 13.6667C14.5313 14.0302 14.8746 14.4411 14.8776 14.4451C16.0358 14.4696 17.1324 13.9249 17.8126 12.9872C17.7778 11.0434 17.3057 9.13239 16.4315 7.39593C15.6618 6.79194 14.7248 6.43945 13.7479 6.38631H13.7368L13.6025 6.53977C14.4751 6.77416 15.2889 7.18896 15.9913 7.75738C15.0976 7.2661 14.1169 6.95337 13.1037 6.8366C12.4598 6.76508 11.8096 6.77153 11.1673 6.85578C11.1219 6.85668 11.0766 6.86141 11.032 6.86992H11.0037C10.2509 6.9566 9.51636 7.16102 8.82698 7.47569C8.48169 7.6342 8.26967 7.7493 8.26058 7.75334C8.2515 7.75738 8.26058 7.75334 8.26058 7.74627C9.00557 7.16033 9.86504 6.73695 10.7836 6.50343L10.6827 6.38833H10.6766C9.69969 6.4416 8.7628 6.79408 7.99303 7.39795C7.11558 9.13322 6.64333 11.045 6.61187 12.9892C7.28361 13.9331 8.38174 14.4799 9.53977 14.4471C9.53977 14.4471 9.90122 14.0069 10.1829 13.6505C9.50747 13.4808 8.91232 13.0809 8.49986 12.5198C8.50693 12.5248 8.60688 12.5925 8.76842 12.6813C8.77927 12.6941 8.79269 12.7044 8.8078 12.7116C8.82059 12.7204 8.8341 12.7282 8.84818 12.7348C8.86415 12.7421 8.87937 12.7509 8.89362 12.7611C9.11887 12.8852 9.35269 12.9932 9.59328 13.0841C10.0507 13.2653 10.5239 13.4038 11.0068 13.4981C11.4295 13.5778 11.8588 13.6184 12.289 13.6192C12.6924 13.6192 13.0949 13.582 13.4914 13.5082C13.969 13.4243 14.4355 13.2861 14.8817 13.0963C15.2671 12.948 15.6349 12.7574 15.9781 12.5278ZM13.9205 12.0967C13.4813 12.135 13.0635 11.8998 12.8686 11.5043C12.6737 11.1088 12.7415 10.6342 13.0395 10.3091C13.3374 9.9841 13.8043 9.87528 14.2152 10.0351C14.6262 10.195 14.8968 10.5907 14.8968 11.0316C14.9191 11.5949 14.4826 12.0705 13.9195 12.0967H13.9205ZM10.4192 12.0967C9.86674 12.0486 9.44281 11.5861 9.44281 11.0316C9.44281 10.4771 9.86674 10.0146 10.4192 9.96643C10.6736 9.9672 10.9169 10.071 11.0936 10.2542C11.294 10.4622 11.4031 10.7417 11.3965 11.0306C11.4198 11.5948 10.9823 12.0716 10.4181 12.0967H10.4192Z" fill="white"/>
</svg>
