<svg width="16" height="20" viewBox="0 0 16 20" fill="none" xmlns="http://www.w3.org/2000/svg">
<path d="M1.53578 0C4.16706 0 6.80358 0 9.43485 0C9.43485 1.28797 9.43485 2.57594 9.43485 3.86391C9.43485 5.03432 10.1634 5.73964 11.3742 5.73964C12.6165 5.73964 13.864 5.73964 15.1062 5.73964C15.1744 5.73964 15.2478 5.73964 15.3316 5.73964C15.3316 5.82142 15.3316 5.88275 15.3316 5.94919C15.3316 9.89487 15.3316 13.8406 15.3316 17.7862C15.3316 18.8493 14.5716 19.5904 13.4761 19.5904C9.60258 19.5904 5.73429 19.5904 1.86076 19.5904C1.75069 19.5904 1.63537 19.5904 1.53054 19.57C0.597541 19.4218 0 18.7267 0 17.7914C0 13.8814 0 9.96643 0 6.05141C0 4.61522 0 3.18415 0 1.74796C0.00524158 1.13464 0.256838 0.638874 0.780996 0.306659C1.00638 0.163552 1.27895 0.10222 1.53578 0ZM7.66319 9.22022C8.82158 9.22022 9.97997 9.22022 11.1384 9.22022C11.4057 9.22022 11.6101 9.12823 11.7307 8.88801C11.9246 8.49957 11.6363 8.07025 11.1698 8.07025C10.0691 8.06514 8.96835 8.07025 7.87286 8.07025C6.64109 8.07025 5.40931 8.07025 4.18278 8.07025C3.92595 8.07025 3.72152 8.16225 3.60621 8.39224C3.40179 8.78579 3.69532 9.21511 4.1723 9.22022C5.33593 9.22022 6.49956 9.22022 7.66319 9.22022ZM7.66844 11.5151C8.82683 11.5151 9.98522 11.5151 11.1436 11.5151C11.4109 11.5151 11.6153 11.4179 11.7359 11.1828C11.9298 10.7944 11.6363 10.3702 11.1698 10.3702C9.90659 10.3651 8.64337 10.3702 7.38015 10.3702C6.31087 10.3702 5.24682 10.3702 4.17754 10.3702C3.9207 10.3702 3.71628 10.4673 3.60097 10.6922C3.39655 11.0857 3.69007 11.5151 4.1723 11.5151C5.33593 11.5151 6.50481 11.5151 7.66844 11.5151ZM7.66319 12.665C6.5048 12.665 5.34642 12.665 4.18802 12.665C3.91022 12.665 3.70056 12.7672 3.59048 13.0126C3.40703 13.4061 3.71104 13.8099 4.18278 13.8099C5.62422 13.8099 7.06041 13.8099 8.50185 13.8099C9.38768 13.8099 10.2683 13.8099 11.1541 13.8099C11.4214 13.8099 11.6258 13.7077 11.7411 13.4675C11.9298 13.0739 11.6311 12.6599 11.1593 12.6599C9.9957 12.6599 8.82683 12.665 7.66319 12.665ZM6.5048 14.9599C5.73953 14.9599 4.97426 14.9599 4.20899 14.9599C3.81063 14.9599 3.54331 15.1899 3.53807 15.5272C3.53283 15.8696 3.80539 16.1047 4.19851 16.1047C5.72381 16.1047 7.24911 16.1047 8.77441 16.1047C9.16753 16.1047 9.44009 15.8696 9.43485 15.5272C9.43485 15.1847 9.16753 14.9599 8.76393 14.9599C8.01438 14.9599 7.25959 14.9599 6.5048 14.9599Z" fill="white"/>
<path d="M10.7321 0.758362C12.2281 2.0284 13.7133 3.28002 15.2039 4.54545C15.1551 4.54545 15.1063 4.55006 15.0575 4.55006C13.8434 4.55006 12.6347 4.55006 11.4205 4.55006C10.9761 4.55006 10.7321 4.34298 10.7321 3.96566C10.7321 2.94411 10.7321 1.92256 10.7321 0.905612C10.7321 0.859596 10.7321 0.813581 10.7321 0.758362Z" fill="white"/>
</svg>
