<svg width="24" height="24" viewBox="0 0 24 24" fill="none" xmlns="http://www.w3.org/2000/svg">
<path d="M11.9653 6.13407e-05C6.32089 -0.000663676 1.50933 4.09281 0.60563 9.66436C-0.298073 15.2359 2.97292 20.6404 8.32814 22.4238C8.90491 22.5276 9.11139 22.1735 9.11139 21.8689C9.11139 21.5955 9.10216 20.8711 9.0987 19.9079C5.89762 20.6 5.22165 18.3645 5.22165 18.3645C5.01091 17.6688 4.55787 17.0717 3.94468 16.6814C2.90649 15.9674 4.02427 15.9835 4.02427 15.9835C4.76332 16.0849 5.41377 16.5228 5.78573 17.1694C6.10057 17.7418 6.631 18.1648 7.25916 18.3444C7.88731 18.524 8.56117 18.4452 9.131 18.1257C9.18455 17.542 9.44423 16.9965 9.8635 16.5868C7.30956 16.2973 4.62411 15.3099 4.62411 10.8999C4.60994 9.75926 5.0335 8.65659 5.80765 7.81877C5.45737 6.82593 5.49862 5.73692 5.923 4.77342C5.923 4.77342 6.88852 4.46312 9.08601 5.95119C10.9707 5.43441 12.9598 5.43441 14.8445 5.95119C17.0431 4.46196 18.0075 4.77342 18.0075 4.77342C18.4339 5.73647 18.4751 6.82623 18.1229 7.81877C18.8998 8.65651 19.3231 9.76207 19.3041 10.9045C19.3041 15.326 16.6163 16.2973 14.0532 16.5822C14.6061 17.1475 14.8897 17.923 14.8318 18.7117C14.8318 20.2505 14.818 21.4917 14.818 21.8689C14.818 22.1769 15.0233 22.5345 15.6104 22.4215C20.9634 20.635 24.2309 15.2303 23.3254 9.66019C22.4198 4.09012 17.6085 -0.00122998 11.9653 6.13407e-05Z" fill="white"/>
</svg>
