<svg width="24" height="25" viewBox="0 0 24 25" fill="none" xmlns="http://www.w3.org/2000/svg">
<path fill-rule="evenodd" clip-rule="evenodd" d="M2.97894 6.47062C3.00875 6.167 2.89646 5.8675 2.67784 5.66372L0.451914 2.88486V2.47009H7.3662L12.7104 14.6096L17.4087 2.47009H24V2.88486L22.0961 4.77552C21.9321 4.9052 21.8506 5.11824 21.8844 5.32923V19.2215C21.8506 19.4314 21.9321 19.6445 22.0961 19.7741L23.9553 21.6648V22.0796H14.6024V21.6648L16.5293 19.7278C16.7181 19.5323 16.7181 19.4746 16.7181 19.1751V7.9465L11.3629 22.0343H10.6395L4.40393 7.9465V17.3884C4.35225 17.7847 4.47945 18.185 4.74875 18.4712L7.25391 21.6185V22.0343H0.150818V21.6185L2.65598 18.4712C2.92428 18.184 3.04353 17.7816 2.97894 17.3884V6.47062Z" fill="white"/>
</svg>
