<svg width="24" height="24" viewBox="0 0 24 24" fill="none" xmlns="http://www.w3.org/2000/svg">
<path d="M20.3364 5.25056C21.3229 4.66082 22.0611 3.73219 22.413 2.63808C21.486 3.18809 20.4718 3.57553 19.4143 3.78365C17.948 2.23259 15.6248 1.85513 13.7429 2.86219C11.861 3.86925 10.8863 6.01152 11.3633 8.09195C7.5663 7.90132 4.02872 6.10773 1.63086 3.15749C0.379465 5.31595 1.01896 8.0752 3.09227 9.46312C2.34254 9.43901 1.60943 9.23602 0.95408 8.87107C0.95408 8.89088 0.95408 8.91069 0.95408 8.9305C0.954514 11.1789 2.53915 13.1156 4.74296 13.5612C4.04754 13.7504 3.31809 13.7783 2.61027 13.6427C3.23005 15.5655 5.00217 16.8827 7.02201 16.922C5.34912 18.235 3.28317 18.9471 1.15656 18.9436C0.779625 18.9441 0.402982 18.9224 0.028595 18.8786C2.18812 20.2663 4.70155 21.0029 7.26851 21.0003C10.8398 21.0249 14.2719 19.6169 16.7971 17.0915C19.3223 14.5661 20.7299 11.1339 20.7051 7.56263C20.7051 7.35794 20.7003 7.15436 20.6908 6.95187C21.6157 6.28346 22.4139 5.45541 23.048 4.50665C22.1863 4.88858 21.2724 5.13933 20.3364 5.25056Z" fill="white"/>
</svg>
